<?xml version="1.0" encoding="utf-8"?>
<!-- Generator: Adobe Illustrator 27.5.0, SVG Export Plug-In . SVG Version: 6.00 Build 0)  -->
<svg version="1.1" id="Layer_1" xmlns="http://www.w3.org/2000/svg" xmlns:xlink="http://www.w3.org/1999/xlink" x="0px" y="0px"
	 viewBox="0 0 800 800" style="enable-background:new 0 0 800 800;" xml:space="preserve">
<g>
	<path style="fill:#004358;" d="M439.652,145.285c-0.519-1.885-1.778-3.52-3.465-4.506c-1.176-0.682-2.444-1.025-3.806-1.03
		c-0.667,0.09-1.336,0.179-2.004,0.269c-1.157,0.324-2.176,0.885-3.057,1.682c-0.655,0.441-1.316,0.871-1.947,1.351
		c-1.488,1.133-2.865,2.271-4.139,3.631c-1.586,1.693-3.149,3.412-4.694,5.141c-1.611,1.804-3.211,3.613-4.939,5.306
		c-1.718,1.684-3.496,3.304-5.151,5.05c-3.377,3.567-6.719,7.167-10.015,10.809c-1.652,1.828-3.323,3.639-4.911,5.524
		c-1.541,1.828-2.993,3.725-4.458,5.613c-1.93,2.489-3.949,4.905-5.841,7.425c-1.165,1.552-2.324,3.109-3.498,4.654
		c-2.936,3.678-5.953,7.293-8.872,10.984c-3.385,4.281-6.544,8.701-9.722,13.135c-0.994,1.386-2.011,2.751-3.04,4.109
		c-2.756,3.532-5.538,7.042-8.304,10.567c-2.706,3.449-5.491,6.831-8.256,10.233c-0.08,0.079-0.16,0.158-0.24,0.238
		c-1.759,1.748-3.525,3.49-5.256,5.267c-1.718,1.765-3.469,3.504-5.145,5.309c-2.007,2.164-4.013,4.327-6.018,6.49
		c-3.14,3.386-6.191,6.865-9.229,10.343c-3.665,4.198-7.29,8.42-10.884,12.68c-0.513,0.608-1.02,1.219-1.531,1.828
		c-0.353-0.053-0.708-0.089-1.068-0.089c-0.64,0.086-1.282,0.173-1.922,0.258c-1.208,0.339-2.258,0.945-3.151,1.82
		c-0.167,0.127-0.333,0.255-0.498,0.384c-1.215,0.001-2.45,0.303-3.441,0.947c-0.621,0.404-1.413,0.903-1.855,1.387
		c-0.234,0.257-0.464,0.517-0.694,0.78c-0.457,0.525-0.896,1.064-1.339,1.602c-0.337,0.41-0.667,0.822-0.997,1.239
		c-0.872,1.102-1.742,2.203-2.614,3.305c-1.106,1.399-2.203,2.808-3.302,4.216c-2.489,3.192-4.982,6.38-7.449,9.59
		c-5.062,5.607-10.137,11.211-15.046,16.951c-3.006,3.514-5.79,7.206-8.586,10.888c-0.879,1.128-1.769,2.248-2.71,3.325
		c-1.417,1.622-2.86,3.22-4.297,4.822c-1.317,1.469-2.543,3.012-3.768,4.556c-0.865,1.09-1.717,2.199-2.539,3.325
		c-0.147,0.152-0.293,0.305-0.439,0.458c-2.936,3.098-5.855,6.197-8.898,9.191c-2.836,2.79-5.834,5.461-8.285,8.608
		c-1.151,1.479-2.252,2.916-3.152,4.514c-0.062,0.02-0.123,0.042-0.184,0.065c-1.538,0.601-1.93,0.791-3.184,1.87
		c-1.111,0.954-1.862,2.258-2.277,3.65c-0.4,1.339-0.301,2.783,0.193,4.078c-0.024,0.206-0.041,0.421-0.05,0.65
		c-0.062,1.497,0.416,2.986,1.269,4.213c0.121,1.241,0.226,2.503,0.49,3.719c0.326,1.508,0.741,2.937,1.32,4.367
		c0.623,1.534,1.302,3.046,1.963,4.565c0.65,1.594,1.299,3.188,1.941,4.786c0.764,1.903,1.446,3.837,2.145,5.766
		c0.676,1.861,1.375,3.708,2.13,5.54c0.744,1.804,1.369,3.66,2.01,5.503c0.535,1.542,1.117,3.06,1.734,4.571
		c0.825,2.023,1.646,4.013,2.781,5.882c0.782,1.287,1.587,2.555,2.303,3.883c0.352,0.655,0.663,1.335,1.015,1.992
		c1.324,2.483,3.713,4.853,6.768,4.624c0.524-0.071,1.049-0.141,1.574-0.212c0.188-0.053,0.366-0.121,0.545-0.19
		c0.276,0.546,0.631,1.046,1.045,1.459c0.32,0.318,0.666,0.591,1.038,0.82c-0.394,1.529-0.658,3.137-0.09,4.647
		c0.173,0.41,0.346,0.822,0.52,1.233c0.458,0.776,1.076,1.393,1.85,1.852c0.412,0.173,0.822,0.347,1.234,0.52
		c0.602,0.162,1.204,0.218,1.807,0.166c1.241,0.267,2.581,0.087,3.672-0.58c1.565-0.956,2.709-2.352,3.928-3.687
		c0.651-0.712,1.29-1.434,1.933-2.154c1.157-1.294,2.276-2.623,3.417-3.932c1.428-1.638,2.836-3.263,3.973-5.126
		c0.568-0.93,1.056-1.9,1.583-2.849c1.069-1.118,2.158-2.216,3.276-3.281c0.023-0.022,0.045-0.044,0.068-0.066
		c0.268-0.201,0.531-0.408,0.784-0.625c0.631-0.634,1.067-1.383,1.309-2.244c0.361-1.312,0.174-2.745-0.514-3.92
		c-0.451-0.763-1.06-1.372-1.825-1.825c-0.787-0.461-1.85-0.765-2.841-0.722c-0.026-0.031-0.052-0.063-0.079-0.094
		c-0.215-0.272-0.444-0.526-0.682-0.771c-0.225-0.247-0.451-0.491-0.669-0.736c-0.445-0.496-0.891-0.99-1.338-1.485
		c-0.848-0.938-1.698-1.874-2.546-2.812c-0.816-0.902-1.656-1.799-2.518-2.659c-1.496-1.494-2.948-3.086-4.613-4.389
		c-0.552-0.547-1.181-0.961-1.889-1.242c-0.152-0.199-0.304-0.398-0.456-0.597c-0.721-0.947-1.444-1.898-2.22-2.802
		c-0.227-0.265-0.434-0.538-0.684-0.783c-0.867-0.858-1.754-1.241-2.881-1.659c-0.488-0.131-0.975-0.196-1.463-0.196
		c-0.488,0-0.975,0.065-1.463,0.196c-0.293,0.082-0.57,0.193-0.839,0.317c0.431-0.406,0.849-0.825,1.248-1.267
		c1.392-1.538,2.689-3.16,3.995-4.769c1.233-1.52,2.419-3.077,3.615-4.625c1.386-1.79,2.791-3.55,4.234-5.294
		c0.812-0.982,1.719-1.914,2.624-2.812c0.82-0.814,1.631-1.622,2.496-2.378c1.128-0.395,2.18-1.074,2.96-1.854
		c0.531-0.531,1.078-1.27,1.45-1.979c0.197-0.373,0.361-0.767,0.538-1.148c0.332-0.721,0.661-1.444,1.012-2.157
		c0.376-0.767,0.758-1.53,1.141-2.294c0.183-0.365,0.359-0.735,0.54-1.102c0.403-0.819,0.792-1.724,1.103-2.554
		c0.586-1.565,0.667-3.29,0.249-4.914c2.595-4.036,5.193-8.069,7.785-12.106c0.789-1.229,1.582-2.457,2.381-3.681
		c2.187-3.271,4.411-6.516,6.633-9.766c4.891-7.153,10.034-14.124,15.216-21.067c0.782-1.004,1.556-2.013,2.29-3.05
		c0.013-0.022,0.025-0.044,0.038-0.065c2.282-3.055,4.562-6.111,6.828-9.179c2.321-3.14,4.571-6.339,6.944-9.439
		c-0.166,0.216-0.333,0.431-0.499,0.647c0.994-1.291,1.962-2.583,2.856-3.954c0.47-0.72,0.754-1.547,0.869-2.405
		c4.263-5.234,8.582-10.424,12.876-15.63c2.844-3.448,5.788-6.816,8.604-10.287c0.936-0.942,1.584-2.053,1.942-3.334
		c0.14-0.52,0.226-1.041,0.257-1.561c0.226-0.25,0.451-0.501,0.676-0.752c3.245-3.615,6.364-7.343,9.615-10.953
		c0.565-0.628,1.132-1.257,1.7-1.883c0.929-0.935,1.571-2.038,1.927-3.307c0.035-0.127,0.066-0.254,0.094-0.38
		c3.591-4.035,7.176-8.075,10.797-12.085c3.174-3.516,6.074-7.263,9.24-10.786c3.191-3.55,6.453-7.04,9.498-10.72
		c3.759-4.542,7.267-9.27,10.847-13.951c0.905-1.172,1.804-2.349,2.681-3.545c0.806-1.099,1.548-2.246,2.312-3.373
		c1.503-2.217,3.005-4.429,4.593-6.584c2.792-3.498,5.762-6.827,8.854-10.067c3.326-3.486,6.899-6.714,10.11-10.313
		c1.918-2.148,3.908-4.207,5.94-6.247c1.057-1.06,2.074-2.142,3.032-3.292c0.864-1.036,1.691-2.109,2.336-3.293
		c0.678-1.242,1.142-2.602,1.684-3.908C440.011,147.957,440.011,146.621,439.652,145.285z M242.723,432.825
		c0.135,0.479,0.325,0.925,0.571,1.339c0.007,0.079,0.014,0.157,0.021,0.235c0.021,0.448,0.042,0.896,0.06,1.345
		c-0.281,0.339-0.524,0.707-0.748,1.09c-0.078-0.348-0.158-0.696-0.243-1.042c-0.44-1.805-0.964-3.594-1.378-5.405
		c-0.448-1.96-0.773-3.946-1.183-5.913c-0.064-0.309-0.135-0.617-0.204-0.926c0.085-0.881,0.113-1.767,0.068-2.658
		c-0.06-1.188-0.149-2.375-0.23-3.561c0.225,0.408,0.464,0.808,0.711,1.204c-0.092,0.416-0.129,0.851-0.08,1.33
		c0.086,0.84,0.186,1.369,0.389,2.101c0.105,0.376,0.209,0.75,0.313,1.126c0.221,0.804,0.444,1.608,0.667,2.412
		c0.148,1.129,0.311,2.255,0.474,3.382C242.123,430.211,242.299,431.551,242.723,432.825z"/>
	<path style="fill:#3498DB;" d="M450.547,137.571c-0.756-1.291-1.937-2.122-3.344-2.57c-0.339-0.108-0.695-0.174-1.057-0.205
		c0.116-0.114,0.232-0.226,0.339-0.347c0.275-0.31,0.553-0.627,0.756-0.989c0.947-1.684,0.709-3.816-0.67-5.196
		c-0.827-0.827-1.926-1.237-3.024-1.237c-0.751,0-1.502,0.192-2.168,0.574c-0.001-0.002-0.003-0.005-0.004-0.007
		c-0.801,0.419-1.581,0.849-2.408,1.22c-0.921,0.412-1.834,0.825-2.734,1.285c-1.787,0.914-3.489,1.948-5.141,3.089
		c-3.344,2.312-6.534,4.864-9.79,7.303c-1.623,1.216-3.254,2.432-4.974,3.51c-1.793,1.124-3.619,2.195-5.414,3.314
		c-1.69,1.052-3.29,2.243-4.921,3.385c-1.71,1.198-3.447,2.361-5.172,3.538c-1.714,1.169-3.358,2.441-5.038,3.657
		c-1.903,1.377-3.78,2.776-5.592,4.273c-3.11,2.572-6.154,5.217-9.206,7.855c-0.098,0.085-0.195,0.169-0.293,0.253
		c-0.135,0.05-0.268,0.104-0.399,0.162c-2.154,0.783-4.148,2.058-6.075,3.261c-1.846,1.154-3.675,2.331-5.504,3.51
		c-3.556,2.292-6.967,4.765-10.34,7.316c-3.259,2.465-6.507,4.969-9.932,7.201c-1.81,1.179-3.635,2.334-5.456,3.494
		c-0.338-0.045-0.675-0.091-1.012-0.136c-1.209,0.005-2.338,0.304-3.385,0.9c-1.312,0.542-2.615,1.096-3.844,1.812
		c-1.318,0.768-2.573,1.64-3.819,2.518c-2.857,2.016-5.566,4.249-8.264,6.469c-1.844,1.518-3.615,3.131-5.417,4.697
		c-0.562,0.488-1.12,0.981-1.677,1.474c-0.57,0.233-1.139,0.471-1.702,0.724c-0.615,0.277-1.178,0.708-1.73,1.091
		c-1.643,1.141-3.195,2.415-4.754,3.669c-0.788,0.633-1.569,1.267-2.345,1.915c-0.402,0.335-0.805,0.671-1.207,1.006
		c-0.03-0.009-0.06-0.017-0.091-0.026c-1.995-0.549-3.953-0.2-5.754,0.753c-1.216,0.645-2.443,1.228-3.579,2.011
		c-1.676,1.156-3.263,2.452-4.823,3.758c-0.906,0.76-1.795,1.532-2.672,2.325c-2.019,1.826-4.039,3.654-6.057,5.482
		c-0.168,0.152-0.335,0.304-0.502,0.458c-0.062,0.033-0.123,0.068-0.184,0.103c-0.618,0.307-1.247,0.585-1.852,0.917
		c-0.607,0.334-1.169,0.774-1.723,1.188c-1.643,1.232-3.212,2.531-4.756,3.883c-0.797,0.697-1.586,1.396-2.369,2.107
		c-1.413,1.28-2.825,2.561-4.237,3.841c-0.435-0.09-0.871-0.137-1.306-0.137c-0.563,0-1.126,0.076-1.689,0.227
		c-1.075,0.302-2.01,0.846-2.802,1.632c-1.694,1.389-3.377,2.788-5.056,4.195c-0.52,0.022-1.036,0.098-1.535,0.247
		c-0.936,0.28-1.859,0.663-2.696,1.169c-1.188,0.717-2.213,1.709-3.259,2.615c-0.496,0.431-1.033,0.824-1.547,1.231
		c-1.502,1.189-3.003,2.376-4.505,3.564c-1.935,1.531-3.887,3.039-5.835,4.552c-3.381,2.568-6.766,5.13-10.155,7.687
		c-1.931,1.457-3.839,2.945-5.745,4.434c-1.56,1.219-3.144,2.414-4.667,3.681c-0.383,0.319-0.767,0.636-1.151,0.954
		c-0.472,0.151-0.92,0.357-1.324,0.623c-2.808,1.847-5.343,4.185-7.795,6.484c-0.529,0.495-1.057,0.991-1.585,1.487
		c-0.88-0.069-1.76,0.015-2.639,0.252c-0.75,0.268-1.476,0.598-2.205,0.921c-0.084,0.057-0.17,0.116-0.254,0.173
		c-0.61,0.455-1.21,0.923-1.804,1.399c-0.289,0.232-0.555,0.499-0.833,0.746c-0.49,0.436-0.979,0.872-1.468,1.308
		c-0.693,0.616-1.383,1.236-2.085,1.843c-1.686,1.455-3.388,2.891-5.109,4.306c-3.087,2.539-6.375,4.855-9.321,7.559
		c-1.739,1.596-3.326,3.346-5.118,4.885c-1.169,0.88-2.352,1.743-3.566,2.558c-1.619,1.09-3.396,1.955-5.135,2.833
		c-1.694,0.855-3.313,1.823-4.915,2.838c-0.798,0.505-1.613,0.984-2.42,1.476c-0.794,0.484-1.568,1.003-2.39,1.437
		c-0.952,0.503-1.925,0.966-2.906,1.411c-1.1,0.398-2.216,0.696-3.368,0.958c-1.127,0.257-2.162,0.79-3.282,1.064
		c-1.139,0.145-1.507,0.264-3.077,1.028c-1.234,0.73-2.216,1.712-2.945,2.946c-0.407,0.621-0.685,1.282-0.834,1.986
		c-0.096,0.721-0.194,1.443-0.29,2.164c0.005,1.47,0.374,2.839,1.111,4.109c0.446,1.042,1.992,2.444,2.958,2.975
		c0.444,0.243,0.897,0.494,1.371,0.676c1.428,0.776,2.878,1.508,4.279,2.335c1.822,1.076,3.646,2.146,5.483,3.197
		c1.772,1.012,3.52,2.064,5.252,3.143c1.703,1.063,3.42,2.106,5.115,3.18c3.484,2.211,6.728,4.798,10.065,7.222
		c1.586,1.151,3.15,2.337,4.783,3.422c2.337,1.55,4.802,2.728,7.454,3.675c0.892,0.318,1.831,0.496,2.778,0.574
		c0.038,0.088,0.075,0.177,0.113,0.265c0.337,0.792,0.758,1.529,1.239,2.24c0.741,1.097,1.557,2.208,2.57,3.077
		c0.57,0.488,1.468,1.255,2.256,1.652c0.691,0.32,1.395,0.615,2.11,0.881c0.818,0.113,1.637,0.223,2.455,0.329
		c0.506-0.002,1-0.048,1.482-0.138c0.308,0.423,0.651,0.822,0.977,1.241c0.753,0.973,2.303,1.935,3.508,2.19
		c0.652,0.143,1.312,0.234,1.981,0.276c1.258-0.003,2.43-0.32,3.519-0.951c0.272-0.199,0.551-0.396,0.822-0.602
		c1.715-1.023,2.828-2.898,2.994-4.873c0.251-0.138,0.496-0.288,0.732-0.448c1.261-0.854,2.497-1.781,3.627-2.803
		c1.533-1.387,2.945-2.891,4.365-4.391c2.799-2.955,5.566-5.922,8.245-8.987c3.478-3.978,6.988-7.929,10.484-11.892
		c0.21-0.203,0.416-0.41,0.618-0.623c0.319-0.334,0.637-0.669,0.956-1.003c0.681-0.714,1.38-1.416,2.043-2.146
		c1.426-1.569,2.854-3.135,4.257-4.726c1.339-1.521,2.669-3.048,4.01-4.568c1.476-1.673,2.988-3.32,4.428-5.025
		c0.87-0.876,1.471-1.909,1.805-3.098c0.086-0.321,0.151-0.642,0.192-0.963c0.567-0.703,1.133-1.407,1.7-2.111
		c0.165-0.204,0.33-0.409,0.496-0.613c0.738-0.689,1.475-1.38,2.208-2.073c3.083-2.921,6.122-5.892,9.22-8.796
		c6.095-5.713,12.134-11.508,17.661-17.783c0.717-0.815,1.446-1.619,2.143-2.45c0.392-0.467,0.786-0.936,1.178-1.405
		c0.63-0.752,1.217-1.542,1.807-2.324c0.164-0.218,0.319-0.443,0.469-0.67c0.438-0.659,0.673-1.358,0.818-2.085
		c2.622-2.572,5.084-5.322,7.56-8.026c2.941-3.214,5.856-6.453,8.771-9.69c4.984-5.534,9.903-11.124,14.915-16.635
		c0.46-0.473,0.921-0.945,1.385-1.415c1.452-1.473,3.039-2.857,4.138-4.631c0.419-0.676,0.695-1.415,0.838-2.177
		c1.481-1.54,2.963-3.079,4.435-4.627c1.425-1.499,2.841-3.005,4.275-4.494c1.719-1.786,3.465-3.577,5.103-5.442
		c1.055-1.024,2.111-2.047,3.167-3.07c5.793-5.607,11.76-11.028,17.607-16.578c2.136-2.028,4.272-4.054,6.403-6.086
		c0.939-0.894,1.877-1.792,2.818-2.684c0.597-0.565,1.192-1.13,1.787-1.695c0.409-0.386,0.863-0.719,1.264-1.112
		c0.664-0.649,1.293-1.42,1.685-2.27c0.347-0.598,0.613-1.219,0.798-1.861c0.4-0.389,0.799-0.778,1.199-1.166
		c2.898-2.814,5.772-5.653,8.638-8.5c1.345-1.335,2.689-2.671,4.039-4.003c0.642-0.633,1.28-1.273,1.924-1.908
		c0.916-0.838,1.875-1.658,2.717-2.561c0.887-0.951,1.421-2.11,1.421-3.429c0-0.116-0.004-0.231-0.013-0.346
		c0.672-0.512,1.34-1.029,2.006-1.551c1.566-1.227,3.086-2.51,4.535-3.872c0.741-0.697,1.449-1.423,2.134-2.176
		c0.295-0.325,0.573-0.664,0.851-1.004c0.422-0.519,0.822-1.064,1.228-1.599c0.502-0.666,0.866-1.327,1.088-2.168
		c0.007-0.025,0.013-0.051,0.02-0.076c4.786-4.234,9.563-8.477,14.397-12.656c1.262-1.09,2.527-2.175,3.796-3.257
		c1.275-0.982,2.543-1.973,3.795-2.982c-0.411,0.639-0.817,1.281-1.213,1.928c-0.818,1.335-1.622,2.678-2.409,4.031
		c-0.672,1.152-1.371,2.306-1.969,3.505c-0.177,0.244-0.349,0.497-0.49,0.719c-0.116,0.182-0.232,0.364-0.344,0.549
		c-0.243,0.4-0.484,0.801-0.72,1.206c-0.409,0.7-0.816,1.404-1.219,2.108c-0.901,0.523-1.638,1.277-2.221,2.187
		c-1.405,2.195-2.683,4.464-3.953,6.738c-0.561,1.004-1.126,2.008-1.677,3.018c-0.05,0.012-0.101,0.025-0.151,0.039
		c-0.461,0.195-0.924,0.389-1.386,0.585c-0.872,0.516-1.565,1.21-2.08,2.08c-0.989,1.293-1.823,2.725-2.661,4.12
		c-0.532,0.887-1.074,1.769-1.608,2.656c-1.274,1.95-2.564,3.89-3.831,5.841c-0.355,0.547-0.708,1.094-1.061,1.643
		c-0.472,0.198-0.943,0.397-1.415,0.597c-0.903,0.534-1.622,1.254-2.157,2.157c-1.234,1.607-2.228,3.38-3.274,5.112
		c-0.308,0.51-0.616,1.021-0.924,1.531c-0.646,0.991-1.293,1.982-1.941,2.971c-0.729,0.303-1.405,0.745-1.981,1.322
		c-0.493,0.493-1.001,0.973-1.488,1.472c-0.511,0.525-0.959,1.111-1.407,1.689c-1.251,1.616-2.432,3.26-3.571,4.957
		c-0.58,0.866-1.124,1.756-1.676,2.641c-1.402,2.252-2.809,4.5-4.209,6.753c-0.665,1.07-1.32,2.147-1.97,3.228
		c-1.4,0.174-2.899,0.796-3.79,1.849c-1.245,1.469-2.445,2.958-3.564,4.527c-0.999,1.402-1.934,2.85-2.866,4.297
		c-0.561,0.87-1.1,1.751-1.638,2.635c-1.605,2.636-3.21,5.274-4.816,7.911c-0.498,0.818-0.99,1.641-1.478,2.465
		c-0.212-0.024-0.426-0.039-0.641-0.039c-0.445,0-0.896,0.053-1.342,0.16c-0.514,0.106-1.003,0.29-1.468,0.548
		c-0.704,0.276-1.361,0.692-1.923,1.239c-2.381,2.321-4.311,5.056-6.316,7.702c-1.051,1.384-2.088,2.773-3.111,4.178
		c-1.106,1.521-2.208,3.044-3.302,4.574c-1.324,1.85-2.764,3.687-3.854,5.682c-0.211,0.387-0.377,0.789-0.498,1.201
		c-0.512,0.747-1.017,1.499-1.534,2.243c-0.825,1.186-1.649,2.372-2.473,3.558c-1.199,1.723-2.385,3.454-3.571,5.187
		c-2.821,4.123-5.543,8.305-8.268,12.491c-0.777,1.194-1.551,2.391-2.322,3.589c-3.368,4.919-6.705,9.861-10.14,14.728
		c-0.341,0.458-0.674,0.921-0.989,1.395c-0.29,0.437-0.499,0.935-0.632,1.459c-0.144,0.212-0.288,0.425-0.432,0.638
		c-0.964,0.41-1.827,0.993-2.589,1.75c-1.321,1.59-2.557,3.254-3.819,4.893c0.428-0.555,0.855-1.108,1.284-1.661
		c-0.98,1.268-1.923,2.563-2.839,3.879c-1.04,1.367-2.081,2.735-3.095,4.118c-2.22,3.023-4.43,6.051-6.672,9.059
		c-5.57,7.079-11.336,14.018-16.656,21.29c-2.982,4.075-5.933,8.166-8.865,12.271c-2.633,3.686-5.089,7.487-7.517,11.311
		c-3.157,4.974-6.134,10.087-9.659,14.823c-0.987,1.232-2.023,2.41-3.2,3.464c-0.313,0.205-0.634,0.398-0.964,0.578
		c-1.32,0.723-2.37,1.73-3.145,3.026c-1.428,2.382-1.386,5.616,0.11,7.962c1.228,1.927,3.023,3.238,4.959,4.382
		c1.185,0.701,2.376,1.426,3.512,2.217c0.433,0.389,0.854,0.791,1.296,1.168c1.202,1.025,2.449,1.919,3.848,2.635
		c1.548,0.791,3.147,1.487,4.712,2.241c0.034,0.016,0.067,0.032,0.101,0.048c0.016,1.281,0.556,2.846,1.156,3.873
		c0.523,0.892,1.003,1.438,1.576,1.936c-0.021-0.016-0.042-0.033-0.064-0.049c0.039,0.032,0.078,0.063,0.117,0.095
		c0.181,0.155,0.372,0.306,0.577,0.463c1.058,0.838,2.16,1.644,3.331,2.31c0.439,0.25,0.88,0.493,1.323,0.732
		c0.194,0.133,0.389,0.266,0.585,0.399c1.47,0.997,2.942,2.004,4.473,2.905c1.284,0.755,2.56,1.515,3.908,2.151
		c1.028,0.482,2.064,0.982,3.158,1.293c0.067,0.019,0.134,0.037,0.201,0.055c1.201,0.812,2.378,1.661,3.537,2.532
		c3.625,2.893,7.02,6.091,11.045,8.441c1.855,1.082,3.744,2.115,5.519,3.326c0.887,0.606,1.747,1.249,2.611,1.888
		c0.376,0.278,0.758,0.546,1.154,0.792c0.194,0.12,0.388,0.241,0.592,0.341c0.84,0.421,1.874,0.803,2.808,1.181
		c0.618,0.251,1.575,0.377,2.573,0.399c0.075,0.063,0.15,0.126,0.225,0.189c0.292,0.242,0.585,0.482,0.882,0.717
		c0.957,1.636,2.557,2.91,4.382,3.413c1.45,0.399,2.949,0.316,4.306-0.163c1.251-0.107,2.477-0.463,3.576-1.089
		c1.589-0.905,2.71-2.19,3.661-3.729c0.558-0.903,1.045-1.841,1.514-2.793c1.013-2.053,1.938-4.153,2.871-6.242
		c0.15-0.338,0.293-0.679,0.439-1.021c0.344-0.81,0.848-1.721,1.039-2.62c0.162-0.588,0.244-1.198,0.246-1.829
		c0-1.208-0.324-2.393-0.919-3.429c1.943-4.475,3.814-8.974,5.705-13.47c1.084-2.544,2.167-5.088,3.242-7.635
		c1.832-4.026,3.662-8.054,5.478-12.086c0.754-1.674,1.504-3.352,2.258-5.027c1.188-2.191,2.15-4.503,3.174-6.771
		c0.665-1.47,1.334-2.939,2.004-4.407c0.331-0.705,0.661-1.41,0.992-2.115c0.914-1.949,1.918-3.861,2.878-5.787
		c1.204-2.416,2.44-4.819,3.707-7.203c0.286-0.509,0.572-1.019,0.858-1.528c1.006-1.79,2.217-3.487,2.761-5.5
		c0.656-2.423-0.044-5.007-1.727-6.772c0.578-1.314,1.153-2.63,1.72-3.948c0.209-0.488,0.419-0.975,0.628-1.462
		c1.32-2.709,2.637-5.419,3.93-8.14c0.276-0.654,0.552-1.306,0.828-1.96c0.172-0.639,0.268-1.278,0.289-1.917
		c0.067-0.301,0.115-0.603,0.147-0.904c0.021-0.021,0.043-0.04,0.064-0.062c0.666-0.718,1.288-1.476,1.747-2.342
		c0.483-0.914,0.839-1.903,1.204-2.869c0.23-0.61,0.469-1.219,0.702-1.828c0.493-1.282,0.984-2.564,1.477-3.845
		c0.758-1.975,1.464-3.973,2.183-5.963c0.541-1.496,1.082-2.993,1.62-4.49c0.198-0.156,0.398-0.323,0.61-0.499
		c0.483-0.401,0.797-0.986,1.174-1.487c0.164-0.216,0.272-0.477,0.382-0.721c0.407-0.897,0.747-1.783,1.033-2.721
		c0.147-0.484,0.302-0.96,0.493-1.429c0.47-1.166,0.943-2.331,1.414-3.496c0.812-2.007,1.601-4.012,2.367-6.035
		c1.765-4.661,3.487-9.336,5.207-14.015c2.86-7.786,5.913-15.5,9.062-23.175c0.289-1.072,0.289-2.145,0-3.217
		c-0.289-1.025-0.807-1.916-1.557-2.671c-0.321-0.319-0.666-0.596-1.035-0.831c1.701-4.601,3.42-9.194,5.172-13.776
		c0.068-0.171,0.137-0.341,0.205-0.512c0.068-0.139,0.137-0.279,0.205-0.419c4.257-8.713,8.312-17.519,12.328-26.345
		c2.711-5.96,5.443-11.91,8.127-17.882c0.407-0.865,0.807-1.734,1.201-2.605c0.714-1.575,1.423-3.151,2.127-4.732
		c0.836-1.885,1.714-3.774,2.429-5.706c0.197-0.732,0.259-1.464,0.188-2.196c0.531-1.584,1.042-3.174,1.555-4.762
		c0.281-1.048,0.281-2.095,0-3.141c-0.169-0.617-0.44-1.2-0.795-1.726c1.846-3.604,3.681-7.214,5.51-10.827
		c1.799-3.553,3.562-7.129,5.204-10.758c1.082-2.394,2.157-4.787,3.171-7.212c0.424-1.01,0.863-2.014,1.27-3.032
		c0.517-1.291,1.145-2.594,1.491-3.941C451.486,140.421,451.313,138.883,450.547,137.571z M149.385,332.521
		c-0.014-0.01-0.029-0.021-0.042-0.033c0.03,0.023,0.06,0.047,0.09,0.07C149.418,332.545,149.401,332.533,149.385,332.521z
		 M163.83,340.631c-0.024-0.011-0.049-0.023-0.074-0.034c0.066-0.045,0.132-0.089,0.197-0.134
		C163.913,340.519,163.871,340.575,163.83,340.631z M215.903,373.548c-0.071,0.169-0.142,0.338-0.214,0.507
		c0.072-0.171,0.143-0.342,0.214-0.513C215.904,373.544,215.903,373.547,215.903,373.548z"/>
	<g>
		<path style="fill:#161616;" d="M181.696,322.192c1.09-0.699,2.178-1.399,3.259-2.112c2.445-1.613,4.874-3.25,7.29-4.909
			c0.971-0.667,1.927-1.362,2.881-2.053c1.123-0.813,2.249-1.625,3.361-2.453c0.347-0.258,0.693-0.518,1.036-0.78
			c0.004-0.002,0.002-0.009-0.001-0.009c-0.001,0-0.002,0-0.003,0.001c-2.455,1.503-4.974,2.902-7.476,4.326
			c-1.138,0.648-2.301,1.255-3.45,1.886c-1.336,0.735-2.68,1.458-4.016,2.194c-2.303,1.269-4.592,2.564-6.865,3.885
			c-0.945,0.549-1.906,1.073-2.85,1.622c-1.62,0.942-3.23,1.901-4.833,2.875c-1.975,1.198-3.992,2.325-5.981,3.501
			c-3.075,1.814-6.116,3.684-9.175,5.524c-0.607,0.365-1.213,0.732-1.817,1.102c-0.005,0.003-0.002,0.012,0.003,0.009
			c2.023-0.851,4.048-1.695,6.044-2.609c1.547-0.708,3.089-1.425,4.626-2.152c1.655-0.783,3.302-1.577,4.945-2.384
			c0.591-0.29,1.18-0.576,1.759-0.89c2.781-1.512,5.543-3.059,8.264-4.676C179.714,323.486,180.701,322.829,181.696,322.192z"/>
		<path style="fill:#161616;" d="M298.072,232.15c-3.041,2.044-6.068,4.104-9.095,6.167c-3.532,2.406-7.059,4.823-10.576,7.251
			c-3.065,2.115-6.139,4.216-9.199,6.335c-2.838,1.966-5.653,3.965-8.467,5.966c-3.027,2.152-6.062,4.293-9.077,6.462
			c-1.889,1.359-3.78,2.716-5.668,4.078c-0.4,0.289-0.788,0.592-1.18,0.89c-1.051,0.797-2.101,1.596-3.151,2.396
			c-1.276,0.974-2.563,1.936-3.816,2.942c-1.838,1.473-3.674,2.949-5.506,4.43c-1.478,1.193-2.936,2.409-4.401,3.618
			c-1.455,1.201-2.932,2.375-4.398,3.561c-0.209,0.169-0.418,0.337-0.626,0.507c-0.778,0.587-1.55,1.182-2.325,1.773
			c-0.646,0.495-1.284,1.004-1.942,1.482c-0.957,0.694-1.913,1.39-2.869,2.086c-0.721,0.526-1.429,1.072-2.142,1.611
			c-0.561,0.424-1.118,0.852-1.673,1.285c-0.005,0.003,0.002,0.01,0.006,0.008c1.719-1.204,3.462-2.375,5.216-3.531
			c0.676-0.447,1.36-0.881,2.023-1.345c1.022-0.714,2.044-1.429,3.065-2.145c0.346-0.242,0.699-0.477,1.036-0.729
			c0.461-0.346,0.921-0.69,1.383-1.034c0.723-0.543,1.446-1.085,2.169-1.628c0.348-0.262,0.7-0.519,1.046-0.786
			c-0.003,0.002-0.006,0.004-0.008,0.006c0.006-0.005,0.012-0.009,0.019-0.014c0.016-0.012,0.032-0.025,0.048-0.037
			c-0.013,0.01-0.025,0.02-0.038,0.029c0.026-0.02,0.051-0.039,0.077-0.059c-0.01,0.008-0.02,0.016-0.031,0.024
			c0.004-0.003,0.007-0.005,0.01-0.008c0.007-0.006,0.015-0.012,0.022-0.017c0.437-0.336,0.872-0.672,1.307-1.008
			c0.003-0.002,0.006-0.005,0.009-0.008c0.167-0.13,0.334-0.259,0.502-0.388c1.018-0.786,2.037-1.571,3.05-2.363
			c-0.035,0.027-0.069,0.054-0.104,0.081c1.063-0.791,2.106-1.61,3.156-2.417c1.115-0.855,2.232-1.709,3.343-2.57
			c-0.041,0.033-0.083,0.065-0.123,0.096c0.535-0.41,1.087-0.801,1.629-1.202c1.102-0.813,2.202-1.629,3.301-2.445
			c0.785-0.585,1.571-1.169,2.354-1.756c0.385-0.287,0.78-0.561,1.169-0.84c3.317-2.375,6.635-4.751,9.962-7.11
			c3.311-2.346,6.62-4.696,9.913-7.068c3.165-2.279,6.331-4.562,9.486-6.855c2.722-1.98,5.42-3.989,8.121-5.996
			c3.144-2.336,6.283-4.682,9.418-7.033c1.192-0.893,2.384-1.79,3.579-2.681c0.004-0.004,0.001-0.01-0.002-0.01
			C298.073,232.149,298.072,232.149,298.072,232.15z"/>
		<path style="fill:#161616;" d="M227.904,283.799c0.022-0.017,0.045-0.034,0.067-0.052c-0.019,0.015-0.038,0.03-0.057,0.044
			C227.911,283.794,227.907,283.796,227.904,283.799z"/>
		<polygon style="fill:#161616;" points="227.981,283.739 227.981,283.739 227.971,283.747 		"/>
		<path style="fill:#161616;" d="M337.105,207.259c2.74-1.876,5.44-3.809,8.115-5.775c3.735-2.741,7.423-5.547,11.09-8.379
			c-0.004,0.003-0.007,0.005-0.01,0.008c0.012-0.01,0.025-0.019,0.037-0.029c-0.003,0.002-0.006,0.004-0.009,0.007
			c0.014-0.011,0.029-0.022,0.043-0.034c-0.001,0.001-0.001,0.001-0.002,0.002c0.084-0.065,0.169-0.13,0.253-0.195
			c-0.005,0.004-0.011,0.009-0.016,0.013c1.401-1.082,2.797-2.169,4.189-3.265c0.004-0.003,0-0.008-0.004-0.008c0,0-0.001,0-0.002,0
			c-5.749,3.444-11.508,6.866-17.186,10.424c-2.692,1.688-5.379,3.385-8.025,5.148c-2.769,1.846-5.482,3.777-8.178,5.728
			c-2.907,2.103-5.766,4.275-8.605,6.469c0.005-0.003,0.009-0.007,0.014-0.01c-0.025,0.019-0.05,0.038-0.075,0.058
			c-2.368,1.781-4.737,3.562-7.107,5.341c-0.004,0.003,0,0.011,0.006,0.009c1.975-1.034,3.925-2.109,5.87-3.2
			c1.018-0.573,2.029-1.15,3.03-1.753c2.784-1.676,5.54-3.392,8.286-5.132C331.608,210.923,334.38,209.125,337.105,207.259z"/>
		<path style="fill:#161616;" d="M190.738,360.851c-0.854-0.562-1.732-1.088-2.579-1.661c-0.583-0.395-1.172-0.783-1.768-1.159
			c-0.338-0.214-0.696-0.403-1.027-0.628c-1.793-1.224-3.643-2.385-5.498-3.517c-2.915-1.78-5.922-3.403-8.995-4.894
			c-0.001-0.001-0.002-0.001-0.002-0.001c-0.004,0-0.007,0.005-0.003,0.008c1.807,1.92,3.663,3.795,5.589,5.598
			c1.399,1.309,2.821,2.605,4.317,3.803c0.622,0.499,1.254,0.988,1.886,1.472c0.314,0.24,0.625,0.497,0.958,0.714
			c1.015,0.664,2.056,1.284,3.11,1.882c0.947,0.54,1.957,0.984,2.943,1.448c1.003,0.47,2.046,0.861,3.081,1.257
			c1.336,0.513,2.718,0.917,4.09,1.326c1.485,0.442,2.982,0.824,4.505,1.117c0.006,0.001,0.009-0.006,0.005-0.009
			c-1.814-1.037-3.523-2.235-5.28-3.365C194.299,363.099,192.498,362.008,190.738,360.851z"/>
		<path style="fill:#161616;" d="M279.656,420.547c-0.726-0.724-1.454-1.443-2.196-2.149c-0.797-0.758-1.664-1.451-2.515-2.145
			c-0.701-0.573-1.419-1.111-2.161-1.625c-1.695-1.174-3.444-2.264-5.244-3.266c-2.976-1.655-6.039-3.131-9.166-4.476l-0.002,0
			c-0.005,0-0.008,0.005-0.004,0.009c3.671,3.782,7.6,7.3,11.784,10.507c1.667,1.276,3.4,2.474,5.165,3.612
			c1.655,1.066,3.284,2.152,4.974,3.165c0.502,0.299,1.045,0.546,1.565,0.813c0.469,0.242,0.941,0.473,1.416,0.702
			c1.129,0.543,2.271,1.057,3.447,1.49c0.004,0.001,0.009-0.006,0.004-0.009c-1.738-1.401-3.325-2.976-4.956-4.497
			C281.037,421.996,280.362,421.252,279.656,420.547z"/>
		<path style="fill:#161616;" d="M310.123,444.316c-2.047-1.962-4.521-3.498-7.022-4.804c-0.001,0-0.001,0-0.002,0
			c-0.004,0-0.008,0.004-0.006,0.008c1.596,2.226,3.388,4.383,5.549,6.085c1.814,1.428,3.851,2.527,5.751,3.833
			c0.003,0.003,0.009-0.001,0.006-0.006C313.205,447.548,311.732,445.858,310.123,444.316z"/>
		<path style="fill:#161616;" d="M331.997,421.364c0.48-1.004,0.947-2.014,1.44-3.012c2.572-5.202,5.064-10.449,7.373-15.773
			c1.897-4.375,3.702-8.831,4.935-13.445c0.001-0.004-0.002-0.007-0.005-0.007c-0.001,0-0.003,0.001-0.004,0.002
			c-1.293,2.453-2.557,4.918-3.741,7.425c-1.233,2.612-2.515,5.202-3.732,7.822c-1.069,2.295-2.154,4.583-3.186,6.895
			c-0.625,1.398-1.237,2.802-1.841,4.209c-0.436,1.015-0.879,2.028-1.291,3.054c-0.591,1.469-1.177,2.938-1.763,4.409
			c-0.325,0.816-0.649,1.629-0.95,2.454c-0.495,1.356-0.992,2.712-1.493,4.066c-0.189,0.516-0.359,1.042-0.54,1.56
			c-0.018,0.053-0.037,0.105-0.055,0.158c0.293-1.196,0.556-2.399,0.802-3.609c0.001-0.006-0.008-0.008-0.009-0.001
			c-0.449,1.922-0.938,3.828-1.518,5.716c-0.029,0.089,0.114,0.152,0.152,0.065c0.003-0.007,0.006-0.014,0.009-0.021h0l0,0
			c1.188-2.797,2.432-5.57,3.685-8.339C330.816,423.77,331.42,422.572,331.997,421.364z"/>
		<path style="fill:#161616;" d="M369.09,335.839c0.574-1.685,1.072-3.391,1.452-5.13c0.404-1.853,0.767-3.723,0.952-5.614
			c0.001-0.003-0.001-0.005-0.004-0.005c-0.002,0-0.004,0.001-0.005,0.003c-0.08,0.198-0.161,0.397-0.242,0.594
			c0.003-0.008,0.006-0.015,0.009-0.023c-0.828,1.895-1.733,3.752-2.612,5.623c-0.189,0.403-0.419,0.791-0.625,1.184
			c-0.236,0.448-0.455,0.905-0.7,1.347c-0.552,0.998-1.093,2.001-1.625,3.009c-1.889,3.582-3.696,7.227-5.249,10.97
			c-3.003,7.234-5.363,14.748-7.347,22.321c-0.001,0.006,0.006,0.009,0.009,0.004c4.538-7.552,8.647-15.387,11.992-23.543
			C366.543,343.046,367.858,339.452,369.09,335.839z"/>
		<path style="fill:#161616;" d="M390.804,275.674c0.538-2.01,0.979-4.049,1.414-6.085c0.383-1.786,0.743-3.577,1.075-5.374
			c0-0.003-0.003-0.006-0.005-0.006c-0.001,0-0.003,0.001-0.004,0.003c-1.61,3.547-3.267,7.07-4.764,10.669
			c-1.121,2.641-2.164,5.309-3.041,8.04c-1.509,4.693-2.662,9.495-3.594,14.335c0,0.006,0.006,0.009,0.009,0.005
			c2.715-5.017,5.162-10.204,7.111-15.569C389.72,279.727,390.263,277.691,390.804,275.674z"/>
		<path style="fill:#161616;" d="M388.461,275.02c0.019-0.046,0.04-0.092,0.059-0.139c0.004-0.01,0.008-0.02,0.013-0.03
			C388.508,274.907,388.484,274.964,388.461,275.02z"/>
		<path style="fill:#161616;" d="M434.284,167.701c0.001-0.003-0.002-0.005-0.005-0.005c-0.002,0-0.003,0.001-0.004,0.002
			c-1.59,2.373-3.142,4.766-4.635,7.201c-1.578,2.572-3.111,5.172-4.599,7.797c-2.02,3.564-3.885,7.203-5.618,10.915
			c-1.801,3.857-3.347,7.822-4.872,11.795c-1.446,3.767-2.76,7.588-4.102,11.393c-0.61,1.729-1.213,3.46-1.813,5.192
			c-0.001,0.006,0.006,0.009,0.009,0.005c1.981-3.708,4.043-7.371,6.046-11.067c2.154-3.976,4.308-7.956,6.363-11.986
			c0.884-1.733,1.765-3.466,2.594-5.228c0.93-1.971,1.819-3.961,2.689-5.958c1.933-4.439,3.783-8.909,5.492-13.438
			C432.659,172.117,433.486,169.915,434.284,167.701z"/>
		<path style="fill:#161616;" d="M229.404,413.924c-0.546-1.436-1.096-2.871-1.693-4.285c-0.785-1.856-1.605-3.696-2.475-5.512
			c-2.118-4.419-4.49-8.724-6.949-12.96c-0.001-0.002-0.002-0.002-0.004-0.002c-0.003,0-0.006,0.002-0.004,0.005
			c1.532,4.275,3.179,8.508,4.977,12.677c0.484,1.123,0.974,2.243,1.482,3.353c0.631,1.377,1.309,2.73,1.972,4.091
			c0.782,1.607,1.592,3.199,2.381,4.801c0.728,1.481,1.427,2.972,2.1,4.48c0.295,0.701,0.585,1.4,0.834,2.118
			c0.001,0.006,0.01,0.005,0.009-0.001c-0.311-1.652-0.797-3.263-1.288-4.867C230.343,416.509,229.892,415.208,229.404,413.924z"/>
		<path style="fill:#161616;" d="M265.002,361.236c1.739-2.36,3.466-4.726,5.223-7.07c-0.021,0.026-0.042,0.053-0.063,0.08
			c1.422-1.834,2.842-3.671,4.335-5.447c0.002-0.004-0.001-0.009-0.005-0.009c-0.001,0-0.002,0-0.003,0.001
			c-2.18,2.095-4.294,4.252-6.357,6.463c-1.831,1.963-3.577,4.003-5.348,6.018c-1.925,2.193-3.84,4.395-5.773,6.581
			c-2.101,2.373-4.147,4.789-6.149,7.246c-0.857,1.052-1.68,2.134-2.51,3.208c-0.854,1.102-1.717,2.197-2.542,3.319
			c-1.677,2.279-3.304,4.594-4.966,6.881c-1.748,2.404-3.466,4.828-5.187,7.249c-0.003,0.004,0.005,0.01,0.008,0.006
			c1.458-1.499,2.895-3.014,4.318-4.545c0.852-0.918,1.714-1.832,2.543-2.77c1.918-2.168,3.797-4.37,5.698-6.551
			c2.082-2.388,4.133-4.804,6.178-7.225c1.798-2.13,3.571-4.282,5.295-6.472C261.504,365.906,263.272,363.586,265.002,361.236z"/>
		<path style="fill:#161616;" d="M246.392,436.216c-0.023-0.926-0.078-1.852-0.111-2.779c-0.075-2.059-0.197-4.118-0.326-6.176
			c-0.001-0.003-0.003-0.004-0.006-0.004c-0.003,0-0.005,0.001-0.005,0.004c-0.065,1.314-0.11,2.627-0.137,3.944
			c-0.016,0.819-0.038,1.64-0.027,2.46c0.026,2.011,0.116,4.018,0.247,6.024c0.105,1.638,0.236,3.274,0.377,4.908
			c0,0.006,0.009,0.006,0.009,0c0.02-1.942,0.036-3.885,0.02-5.828C246.427,437.919,246.413,437.066,246.392,436.216z"/>
		<path style="fill:#161616;" d="M248.166,435.681c-0.001-0.002-0.003-0.003-0.005-0.003c-0.003,0-0.005,0.001-0.005,0.005
			c0.089,0.986,0.192,1.971,0.34,2.949c0.146,0.98,0.362,1.951,0.568,2.921c0,0.004,0.009,0.004,0.009-0.002
			c-0.048-0.929-0.116-1.858-0.242-2.781C248.688,437.726,248.447,436.698,248.166,435.681z"/>
		<path style="fill:#161616;" d="M250.969,434.735c0-0.003-0.002-0.004-0.004-0.004c-0.002,0-0.005,0.001-0.005,0.004
			c0.035,0.628,0.083,1.255,0.171,1.877c0.101,0.702,0.265,1.395,0.439,2.082c0,0.006,0.009,0.004,0.009,0
			c-0.053-0.649-0.111-1.297-0.2-1.942C251.286,436.073,251.132,435.401,250.969,434.735z"/>
		<path style="fill:#161616;" d="M253.793,433.106c0-0.003-0.002-0.004-0.004-0.004c-0.002,0-0.005,0.002-0.005,0.005
			c0.008,1.228,0.069,2.448,0.235,3.666c0-0.005,0-0.01-0.001-0.015c0.07,0.521,0.152,1.04,0.24,1.56
			c0.001,0.006,0.009,0.005,0.009-0.001c0.002-0.885-0.021-1.771-0.099-2.653C254.091,434.807,253.949,433.952,253.793,433.106z"/>
		<path style="fill:#161616;" d="M256.183,432.913c-0.001-0.002-0.002-0.003-0.004-0.003c-0.002,0-0.005,0.002-0.005,0.004
			c-0.065,1.228-0.089,2.462,0.001,3.69c0.084,1.127,0.268,2.249,0.479,3.358c0.002,0.005,0.009,0.003,0.009-0.001
			c0.06-1.18,0.08-2.363,0.008-3.543C256.598,435.243,256.403,434.07,256.183,432.913z"/>
		<path style="fill:#161616;" d="M455.182,162.093c0.002-0.013-0.009-0.024-0.02-0.024c-0.006,0-0.011,0.003-0.015,0.009
			c-0.469,0.878-0.878,1.789-1.3,2.69c-0.242,0.519-0.475,1.04-0.703,1.565c-0.642,1.461-1.272,2.928-1.886,4.401
			c-1.282,3.078-2.524,6.173-3.696,9.295c-1.276,3.397-2.464,6.815-3.555,10.275c-1.037,3.287-2.01,6.593-2.954,9.907
			c-1.067,3.752-2.086,7.517-3.084,11.287c-0.001,0.006,0.006,0.008,0.009,0.003c2.501-6.059,4.966-12.128,7.302-18.253
			c2.513-6.594,4.747-13.283,6.735-20.054c0.511-1.74,1.01-3.487,1.499-5.235c0.23-0.827,0.445-1.658,0.684-2.483
			C454.526,164.347,454.819,163.208,455.182,162.093C455.183,162.093,455.183,162.093,455.182,162.093z"/>
		<path style="fill:#161616;" d="M415.435,265.292c-0.043-0.026-0.09-0.038-0.135-0.038c-0.094,0-0.185,0.051-0.241,0.135
			c-0.201,0.31-0.412,0.613-0.615,0.923c-0.207,0.317-0.383,0.652-0.559,0.988c-0.389,0.747-0.74,1.514-1.079,2.285
			c-0.341,0.777-0.685,1.556-0.988,2.348c-0.49,1.284-0.977,2.567-1.461,3.852c-0.485,1.285-0.968,2.57-1.449,3.857
			c-0.264,0.71-0.502,1.43-0.75,2.145c-1.67,4.828-3.322,9.665-4.926,14.517c-1.435,4.341-2.848,8.689-4.239,13.044
			c-0.567,1.775-1.103,3.559-1.682,5.33c-0.876,2.688-1.742,5.378-2.6,8.072c-0.518,1.626-1.033,3.253-1.569,4.872
			c-0.924,2.796-1.843,5.591-2.758,8.389c-1.369,4.185-2.727,8.372-4.115,12.549c-0.132,0.395-0.268,0.791-0.403,1.184
			c-0.001,0.006,0.008,0.009,0.009,0.003c1.81-4.368,3.57-8.757,5.33-13.145c1.646-4.108,3.311-8.208,4.879-12.346
			c1.076-2.841,2.143-5.685,3.199-8.534c0.567-1.53,1.087-3.08,1.617-4.625c1.493-4.344,2.97-8.694,4.349-13.077
			c1.524-4.848,3-9.708,4.4-14.594c0.293-1.024,0.564-2.055,0.875-3.071c0.305-0.998,0.604-1.998,0.903-2.997
			c0.451-1.5,0.897-3.002,1.342-4.505c0.543-1.836,1.142-3.664,1.88-5.432c0.042-0.096,0.084-0.19,0.128-0.284
			c-0.028,0.122-0.056,0.243-0.083,0.365c-0.072,0.331-0.146,0.66-0.219,0.989c-0.219,0.978-0.439,1.957-0.658,2.934
			c-0.002,0.006,0.007,0.009,0.009,0.003c0.307-0.965,0.61-1.931,0.914-2.896c0.107-0.343,0.215-0.685,0.322-1.028
			c0.045-0.144,0.09-0.289,0.135-0.431c0.068-0.218,0.137-0.434,0.203-0.651c0.081-0.271,0.123-0.543,0.161-0.819
			C415.578,265.477,415.551,265.36,415.435,265.292z"/>
		<path style="fill:#161616;" d="M409.727,309.829c-0.083-0.049-0.173-0.072-0.262-0.072c-0.183,0-0.36,0.097-0.464,0.261
			c-0.22,0.347-0.447,0.69-0.651,1.046c-0.197,0.344-0.359,0.714-0.526,1.072c-0.364,0.78-0.717,1.574-1.033,2.373
			c-0.143,0.359-0.286,0.719-0.427,1.078c-0.598,1.515-1.192,3.03-1.78,4.55c-0.806,2.076-1.554,4.174-2.306,6.269
			c-1.604,4.47-3.108,8.972-4.55,13.496c-1.5,4.708-2.948,9.43-4.368,14.162c-1.04,3.466-2.05,6.943-3.081,10.412
			c-0.001,0.006,0.008,0.008,0.009,0.001c1.867-4.58,3.713-9.17,5.524-13.773c1.629-4.139,3.229-8.293,4.759-12.471
			c0.827-2.259,1.656-4.521,2.426-6.802c0.943-2.79,1.849-5.591,2.737-8.399c0.415-1.311,0.83-2.62,1.245-3.931
			c0.333-1.054,0.663-2.107,0.992-3.162c-0.375,2.026-0.752,4.051-1.107,6.081c-0.001,0.006,0.008,0.009,0.009,0.003
			c0.526-2.017,1.048-4.034,1.586-6.047c0.232-0.867,0.465-1.735,0.701-2.6c0.271-0.985,0.573-1.959,0.81-2.951
			C410.026,310.195,409.938,309.951,409.727,309.829z"/>
		<circle style="fill:#161616;" cx="446.759" cy="214.345" r="0.289"/>
		<path style="fill:#161616;" d="M448.948,202.186c-0.05,0-0.103,0.031-0.122,0.081c-1.632,4.291-3.056,8.655-4.58,12.985
			c-0.534,1.515-1.061,3.033-1.583,4.553c-0.204,0.598-0.389,1.205-0.625,1.792c-1.051,2.602-2.073,5.214-3.053,7.843
			c-0.254,0.682-0.486,1.377-0.758,2.052c-0.377,0.936-0.751,1.874-1.121,2.814c-0.849,2.151-1.676,4.311-2.495,6.472
			c-0.725,1.909-1.428,3.825-2.136,5.74c-0.777,2.104-1.521,4.222-2.315,6.321c-0.003,0.005,0.006,0.007,0.009,0.003
			c1.079-2.029,2.092-4.097,3.089-6.169c0.924-1.916,1.837-3.839,2.73-5.77c1.178-2.548,2.331-5.106,3.46-7.676
			c0.75-1.704,1.411-3.444,2.077-5.183c0.567-1.483,1.115-2.975,1.656-4.469c0.171-0.47,0.341-0.941,0.509-1.411
			c0.05-0.137,0.101-0.273,0.141-0.413c0.747-2.567,1.473-5.139,2.185-7.717c0.507-1.831,0.953-3.678,1.417-5.519
			c0.449-1.783,0.897-3.567,1.377-5.341c0.09-0.29,0.291-0.591,0.231-0.906C449.033,202.211,448.992,202.186,448.948,202.186z"/>
		<path style="fill:#161616;" d="M350.847,430.275c-0.002,0-0.003,0.001-0.004,0.003c-0.902,2.851-1.78,5.709-2.68,8.56
			c-0.765,2.427-1.521,4.857-2.267,7.29c-0.83,2.706-1.644,5.414-2.447,8.127c-0.325,1.099-0.639,2.202-0.969,3.298
			c-1.389,4.593-2.74,9.199-4.019,13.824c-1.036,3.752-2.088,7.499-3.111,11.255c-1.061,3.896-2.112,7.795-3.155,11.696
			c-0.989,3.701-1.967,7.404-2.954,11.106c-0.311,1.172-0.624,2.346-0.938,3.519c-0.001,0.006,0.008,0.009,0.009,0.003
			c1.398-4.246,2.818-8.485,4.228-12.727c1.183-3.555,2.36-7.113,3.519-10.676c1.293-3.974,2.578-7.951,3.825-11.94
			c0.499-1.598,0.957-3.211,1.422-4.82c0.794-2.746,1.566-5.498,2.325-8.254c0.28-1.016,0.564-2.029,0.824-3.05
			c0.519-2.035,1.028-4.072,1.532-6.11c1.132-4.593,2.228-9.194,3.287-13.804c0.558-2.424,1.061-4.861,1.578-7.293
			C350.853,430.277,350.85,430.275,350.847,430.275z"/>
		<path style="fill:#161616;" d="M348.829,467.805c-0.881,2.79-1.694,5.603-2.363,8.453c-0.525,2.237-0.845,4.514-1.124,6.791
			c-0.099,0.803-0.177,1.608-0.24,2.414c0,0.006,0.007,0.006,0.009,0.001c0.51-2.444,1.099-4.874,1.676-7.303
			c0.576-2.424,1.087-4.862,1.532-7.315c0.182-1.012,0.355-2.025,0.52-3.039c0-0.003-0.002-0.005-0.005-0.005
			C348.831,467.801,348.829,467.803,348.829,467.805z"/>
		<path style="fill:#161616;" d="M351.908,469.004c-0.343,0.974-0.654,1.96-0.952,2.951c-0.216,0.715-0.392,1.443-0.564,2.17
			c-0.365,1.548-0.667,3.113-0.903,4.687c-0.001,0.006,0.008,0.008,0.009,0.001c0.38-1.539,0.794-3.071,1.18-4.61
			c0.182-0.726,0.334-1.458,0.516-2.184c0.249-1.003,0.481-2.01,0.724-3.014c0.001-0.003-0.002-0.005-0.004-0.005
			C351.912,469.001,351.909,469.002,351.908,469.004z"/>
		<path style="fill:#161616;" d="M170.713,299.589c0.004-0.002,0.001-0.009-0.002-0.009c-0.001,0-0.002,0-0.002,0.001
			c-3.989,2.467-8.007,4.887-12.005,7.337c-4.162,2.551-8.317,5.116-12.461,7.694c-2.14,1.332-4.269,2.683-6.396,4.034
			c-2.013,1.278-4.025,2.554-6.024,3.852c-2.14,1.39-4.27,2.799-6.39,4.221c-0.445,0.298-0.905,0.579-1.356,0.867
			c-1.24,0.797-2.479,1.598-3.714,2.403c-2.28,1.487-4.55,2.988-6.811,4.502c-0.639,0.427-1.275,0.855-1.91,1.285
			c-1.481,1-3.005,1.938-4.505,2.91c-0.004,0.003,0,0.012,0.005,0.009c1.703-0.83,3.42-1.635,5.092-2.524
			c1.049-0.556,2.097-1.115,3.145-1.677c2.951-1.584,5.888-3.193,8.814-4.823c0.721-0.403,1.443-0.807,2.163-1.213
			c0.493-0.277,0.971-0.583,1.455-0.876c2.796-1.691,5.575-3.409,8.338-5.154c1.35-0.851,2.694-1.708,4.015-2.6
			c2.623-1.774,5.229-3.573,7.828-5.384c3.435-2.393,6.835-4.837,10.233-7.284C163.724,304.641,167.218,302.116,170.713,299.589z"/>
		<path style="fill:#161616;" d="M184.426,295.281c-2.333,1.808-4.61,3.689-6.845,5.616c-0.005,0.003,0.001,0.009,0.006,0.008
			c3.574-2.083,7.083-4.279,10.486-6.635c0.607-0.421,1.192-0.882,1.778-1.335c0.745-0.576,1.485-1.159,2.22-1.75
			c0.505-0.406,0.988-0.843,1.476-1.269c0.549-0.478,1.097-0.956,1.638-1.443c1.53-1.377,3.053-2.764,4.514-4.215
			c0.003-0.004,0-0.008-0.003-0.008c-0.001,0-0.002,0-0.003,0.001c-2.674,1.956-5.432,3.797-8.108,5.752
			c-1.282,0.935-2.597,1.822-3.863,2.779C186.624,293.616,185.516,294.436,184.426,295.281z"/>
		<path style="fill:#161616;" d="M176.755,289.708c0.558-0.113,1.108-0.266,1.652-0.431c1.021-0.314,2.008-0.734,2.981-1.171
			c1.36-0.615,2.621-1.386,3.866-2.202c1.362-0.893,2.686-1.849,3.913-2.921c0.002-0.004,0-0.008-0.004-0.008
			c-0.001,0-0.002,0-0.003,0.001c-1.168,0.782-2.39,1.496-3.624,2.167c-0.735,0.4-1.46,0.818-2.197,1.212
			c-1.732,0.926-3.474,1.852-5.283,2.62c0.015-0.007,0.032-0.013,0.047-0.021c-0.464,0.194-0.932,0.376-1.405,0.546
			c-0.452,0.161-0.911,0.311-1.384,0.397c-0.005,0.001-0.005,0.009,0.001,0.009C175.8,289.893,176.277,289.804,176.755,289.708z"/>
		<path style="fill:#161616;" d="M120.208,319.261c1.781-0.785,3.487-1.735,5.177-2.698c1.449-0.827,2.884-1.674,4.309-2.543
			c2.439-1.486,4.836-3.05,7.218-4.625c1.757-1.16,3.502-2.34,5.241-3.529c1.638-1.121,3.26-2.274,4.926-3.356
			c0.004-0.003,0.001-0.008-0.002-0.008c0,0-0.001,0-0.002,0.001c-1.284,0.627-2.542,1.305-3.803,1.974
			c-1.263,0.67-2.521,1.351-3.776,2.037c-2.211,1.208-4.422,2.427-6.587,3.719c-2.017,1.205-4.001,2.462-5.966,3.75
			c-1.455,0.956-2.899,1.924-4.353,2.882c-1.24,0.816-2.498,1.598-3.791,2.33c-1.266,0.715-2.548,1.399-3.836,2.073
			c-0.005,0.003-0.002,0.01,0.003,0.009C116.739,320.671,118.493,320.015,120.208,319.261z"/>
		<path style="fill:#161616;" d="M410.947,138.117c1.885-0.729,3.762-1.479,5.632-2.249c0.836-0.346,1.67-0.696,2.503-1.049
			c0.299-0.126,0.613-0.239,0.905-0.386c1.357-0.687,2.712-1.378,4.052-2.095c1.303-0.696,2.596-1.413,3.879-2.146
			c0.46-0.262,0.905-0.553,1.356-0.831c0.897-0.553,1.792-1.111,2.683-1.673c2.415-1.52,4.802-3.083,7.176-4.667
			c0.884-0.589,1.777-1.178,2.617-1.829c0.004-0.003,0.001-0.008-0.002-0.008c-0.001,0-0.001,0-0.002,0.001
			c-0.696,0.41-1.422,0.768-2.139,1.135c-0.648,0.331-1.297,0.655-1.947,0.981c-1.393,0.7-2.79,1.396-4.183,2.1
			c-1.191,0.603-2.381,1.205-3.567,1.817c-1.072,0.552-2.131,1.13-3.211,1.664c-1.673,0.828-3.337,1.673-4.981,2.555
			c-0.735,0.394-1.467,0.794-2.196,1.197c-0.209,0.116-0.416,0.233-0.631,0.338c-3.098,1.508-6.166,3.081-9.202,4.711
			c-1.69,0.906-3.402,1.771-5.092,2.674c-0.005,0.001-0.002,0.01,0.003,0.008C406.728,139.648,408.852,138.925,410.947,138.117z"/>
		<path style="fill:#161616;" d="M415.947,128.565c1.577-0.657,3.132-1.366,4.678-2.094c1.733-0.816,3.456-1.652,5.168-2.51
			c0.004-0.003,0.002-0.01-0.001-0.01l-0.002,0.001c-3.707,1.405-7.416,2.805-11.036,4.422c-2.385,1.066-4.741,2.196-7.076,3.364
			c-0.005,0.003-0.001,0.012,0.003,0.009C410.463,130.753,413.222,129.701,415.947,128.565z"/>
		<path style="fill:#161616;" d="M380.738,157.031c-2.788,1.622-5.607,3.194-8.411,4.787c-2.763,1.568-5.524,3.14-8.273,4.732
			c-2.542,1.47-5.109,2.896-7.645,4.38c-0.708,0.413-1.416,0.83-2.122,1.248c-0.213,0.126-0.425,0.256-0.643,0.374
			c-1.52,0.831-3.035,1.668-4.548,2.513c-0.869,0.485-1.738,0.972-2.605,1.462c-0.394,0.222-0.789,0.439-1.178,0.667
			c-0.11,0.065-0.229,0.116-0.343,0.174c-0.314,0.161-0.628,0.32-0.941,0.481c-0.932,0.477-1.861,0.956-2.79,1.437
			c-0.885,0.459-1.771,0.92-2.654,1.383c-1.132,0.594-2.279,1.16-3.418,1.741c-0.006,0.001-0.001,0.01,0.003,0.009
			c1.142-0.465,2.286-0.92,3.418-1.407c0.792-0.343,1.583-0.687,2.373-1.031c1.572-0.688,3.144-1.38,4.711-2.08
			c0.304-0.135,0.595-0.298,0.89-0.446c0.836-0.421,1.668-0.846,2.5-1.27c1.659-0.848,3.316-1.703,4.966-2.569
			c0.848-0.445,1.67-0.943,2.498-1.422c1.811-1.048,3.611-2.115,5.405-3.191c2.492-1.494,4.941-3.056,7.394-4.612
			c2.207-1.398,4.407-2.806,6.6-4.224c1.608-1.039,3.22-2.076,4.819-3.128c0.005-0.004,0.003-0.01-0.002-0.01
			C380.74,157.03,380.739,157.03,380.738,157.031z"/>
		<path style="fill:#161616;" d="M354.264,167.56c0.621-0.304,1.243-0.603,1.856-0.923c1.06-0.555,2.109-1.13,3.153-1.712
			c2.455-1.366,4.89-2.778,7.262-4.285c0.004-0.004,0.001-0.01-0.003-0.01c-0.001,0-0.002,0-0.003,0.001
			c-3.616,1.811-7.284,3.522-10.849,5.432c-1.251,0.67-2.509,1.327-3.753,2.01c-1.879,1.03-3.747,2.08-5.604,3.148
			c-0.006,0.003-0.002,0.01,0.004,0.007C349,170.059,351.645,168.84,354.264,167.56z"/>
		<path style="fill:#161616;" d="M236.894,252.573c2.255-1.174,4.505-2.357,6.749-3.552c1.087-0.579,2.186-1.141,3.26-1.747
			c1.711-0.965,3.42-1.934,5.124-2.913c1.865-1.07,3.726-2.148,5.581-3.236c1.12-0.658,2.219-1.356,3.32-2.043
			c3.229-2.013,6.424-4.075,9.605-6.161c1.267-0.831,2.54-1.653,3.786-2.515c1.019-0.703,2.038-1.41,3.057-2.116
			c0.439-0.305,0.879-0.61,1.318-0.915c0.165-0.114,0.334-0.224,0.495-0.344c1.392-1.031,2.793-2.049,4.179-3.087
			c1.476-1.105,2.964-2.193,4.415-3.329c0.702-0.549,1.411-1.085,2.083-1.671c0.003-0.002,0-0.007-0.004-0.007
			c-0.001,0-0.002,0-0.003,0.001c-0.08,0.062-0.161,0.125-0.241,0.186c0.001,0,0.001-0.001,0.003-0.001
			c-0.672,0.51-1.374,0.983-2.074,1.453c-0.696,0.467-1.39,0.937-2.089,1.398c-1.593,1.051-3.19,2.098-4.789,3.14
			c-0.642,0.418-1.273,0.855-1.925,1.255c-0.788,0.484-1.575,0.968-2.363,1.453c-1.345,0.828-2.683,1.672-4.043,2.477
			c-3.143,1.862-6.28,3.738-9.412,5.619c-1.885,1.133-3.764,2.279-5.632,3.439c-1.073,0.664-2.163,1.302-3.242,1.957
			c-2.134,1.294-4.263,2.602-6.384,3.919c-0.815,0.507-1.626,1.012-2.447,1.506c-3.588,2.168-7.161,4.362-10.717,6.584
			c-1.386,0.866-2.785,1.712-4.176,2.572c-0.006,0.005-0.001,0.012,0.005,0.009C232.528,254.808,234.718,253.706,236.894,252.573z"
			/>
		<path style="fill:#161616;" d="M263.043,229.722c0.643-0.289,1.291-0.568,1.924-0.876c0.92-0.448,1.834-0.909,2.743-1.378
			c1.192-0.613,2.366-1.263,3.534-1.921c1.467-0.827,2.93-1.661,4.369-2.531c0.005-0.003,0.003-0.008-0.002-0.008
			c-0.001,0-0.002,0-0.003,0.001c-1.58,0.773-3.172,1.52-4.759,2.277c-0.872,0.415-1.741,0.833-2.606,1.257
			c-0.842,0.413-1.697,0.803-2.539,1.214c-3.35,1.637-6.677,3.314-9.964,5.074c-0.005,0.003-0.001,0.01,0.005,0.009
			C258.196,231.839,260.629,230.804,263.043,229.722z"/>
		<path style="fill:#161616;" d="M310.6,201.862c2.342-1.449,4.667-2.927,6.971-4.436c0.005-0.003,0.003-0.008-0.002-0.008
			c0,0-0.002,0-0.003,0.001c-2.515,1.249-5.061,2.435-7.589,3.657c-2.539,1.228-5.07,2.479-7.58,3.767
			c-1.5,0.773-2.982,1.583-4.454,2.408c-0.733,0.413-1.488,0.789-2.231,1.183c-1.688,0.894-3.362,1.813-5.026,2.751
			c-0.509,0.289-1.019,0.579-1.527,0.87c-1.07,0.615-2.166,1.183-3.244,1.783c-0.006,0.003-0.001,0.011,0.003,0.009
			c1.171-0.41,2.351-0.801,3.504-1.263c0.594-0.237,1.186-0.477,1.777-0.72c1.847-0.756,3.684-1.536,5.512-2.34
			c0.779-0.344,1.556-0.685,2.315-1.072c1.686-0.858,3.356-1.745,5.007-2.67C306.257,204.535,308.432,203.206,310.6,201.862z"/>
		<path style="fill:#161616;" d="M365.411,392.063c-0.991,2.745-1.93,5.515-2.755,8.315c-0.894,3.041-1.748,6.092-2.579,9.151
			c-0.601,2.213-1.195,4.427-1.762,6.648c-0.001,0.006,0.008,0.009,0.009,0.003c1.123-2.97,2.33-5.909,3.496-8.861
			c0.952-2.413,1.87-4.836,2.802-7.255c1.18-3.063,2.294-6.148,3.32-9.267c0.869-2.638,1.745-5.273,2.56-7.927
			c0.914-2.979,1.786-5.973,2.624-8.975c0.001-0.003-0.002-0.006-0.005-0.006c-0.002,0-0.003,0.001-0.004,0.003
			c-1.751,3.707-3.409,7.451-4.984,11.236C367.179,387.423,366.254,389.726,365.411,392.063z"/>
		<path style="fill:#161616;" d="M379.317,377.15c-0.864,2.408-1.691,4.829-2.561,7.236c-0.406,1.123-0.809,2.246-1.207,3.37
			c-1.291,3.633-2.546,7.278-3.765,10.935c-1.581,4.739-3.141,9.487-4.612,14.263c-0.815,2.644-1.586,5.301-2.343,7.962
			c-0.218,0.765-0.392,1.547-0.585,2.319c-0.467,1.864-0.926,3.731-1.381,5.599c-0.343,1.404-0.681,2.809-1.019,4.215
			c-0.209,0.872-0.391,1.75-0.582,2.624c-0.631,2.872-1.257,5.745-1.879,8.619c-0.567,2.623-1.147,5.244-1.679,7.875
			c0,0.006,0.008,0.009,0.01,0.003c0.78-2.775,1.655-5.524,2.513-8.275c0.869-2.784,1.744-5.564,2.614-8.348
			c0.705-2.252,1.44-4.493,2.161-6.738c0.576-1.79,1.147-3.582,1.711-5.375c0.203-0.643,0.394-1.291,0.607-1.93
			c1.931-5.778,3.731-11.595,5.413-17.448c0.502-1.745,0.956-3.507,1.417-5.262c0.979-3.707,1.918-7.424,2.823-11.148
			c0.25-1.022,0.495-2.044,0.738-3.068c0.585-2.464,1.093-4.947,1.616-7.424c0-0.004-0.003-0.006-0.006-0.006
			C379.32,377.146,379.318,377.147,379.317,377.15z"/>
	</g>
	<g>
		<path style="fill:#2C2C2C;" d="M458.049,119.782c-0.459-0.46-1.12-0.737-1.776-0.737c-0.22,0-0.439,0.031-0.65,0.096
			c-0.46,0.141-0.92,0.286-1.351,0.501c-0.469,0.233-0.92,0.484-1.374,0.746c-0.332,0.192-0.655,0.4-0.983,0.6
			c-0.694,0.422-1.387,0.845-2.082,1.269c-1.553,0.95-3.105,1.9-4.658,2.851c-3.316,2.032-6.623,4.081-9.931,6.128
			c-5.419,3.353-10.798,6.774-16.179,10.189c-11.941,7.576-23.863,15.18-35.775,22.8c-5.724,3.661-11.461,7.301-17.158,11.003
			c-6.826,4.436-13.653,8.873-20.478,13.308c-2.303,1.497-4.575,3.042-6.862,4.563c-4.239,2.82-8.476,5.638-12.715,8.458
			c-1.801,1.198-3.615,2.378-5.399,3.6c-3.359,2.3-6.719,4.598-10.077,6.896c-3.535,2.42-7.069,4.838-10.604,7.257
			c-1.787,1.225-3.549,2.488-5.321,3.735c-4.138,2.916-8.276,5.831-12.414,8.745c-1.766,1.243-3.541,2.474-5.291,3.738
			c-6.901,4.986-13.801,9.97-20.701,14.956c-1.742,1.258-3.462,2.551-5.189,3.83c-4.036,2.99-8.072,5.979-12.107,8.97
			c-5.44,4.03-10.849,8.099-16.265,12.161c-5.589,4.191-11.2,8.35-16.817,12.501c-2.369,1.751-4.72,3.529-7.111,5.25
			c-3.564,2.566-7.128,5.13-10.691,7.696c-2.127,1.532-4.251,3.063-6.399,4.565c-3.696,2.582-7.392,5.166-11.088,7.75
			c-1.009,0.705-2.035,1.384-3.056,2.073c-2.45,1.652-4.899,3.302-7.349,4.954c-2.908,1.962-5.877,3.834-8.873,5.661
			c-2.612,1.593-5.277,3.093-7.987,4.511c-1.291,0.676-2.597,1.324-3.907,1.963c-1.26,0.615-2.526,1.222-3.809,1.788
			c-0.049-0.033-0.099-0.067-0.148-0.1c-0.356-0.24-0.764-0.348-1.174-0.348c-0.866,0-1.744,0.483-2.18,1.228
			c-0.332,0.567-0.422,1.257-0.248,1.889c0.177,0.645,0.585,1.1,1.127,1.465c3.277,2.206,6.547,4.415,9.739,6.743
			c0.638,0.493,1.277,0.986,1.916,1.48c-0.096-0.074-0.191-0.147-0.287-0.222c1.454,1.125,2.904,2.258,4.358,3.384
			c3.453,2.67,6.966,5.26,10.45,7.892c3.208,2.423,6.498,4.735,9.82,6.998c3.535,2.409,7.091,4.792,10.598,7.243
			c3.383,2.363,6.681,4.852,10.105,7.158c2.993,2.013,6.036,3.947,9.016,5.978c1.393,0.95,2.77,1.927,4.17,2.869
			c1.348,0.909,2.703,1.803,4.137,2.566c1.496,4.09,3.139,8.114,4.911,12.093c1.685,3.785,3.671,7.424,5.539,11.118
			c0.872,1.728,1.691,3.481,2.524,5.228c0.906,1.901,1.823,3.8,2.682,5.722c0.873,1.953,1.75,3.905,2.65,5.846
			c0.86,1.852,1.765,3.686,2.648,5.528c1.283,2.674,2.473,5.393,3.642,8.119c1.264,3.016,2.495,6.044,3.585,9.128
			c1.204,3.403,2.44,6.776,4.076,10c0.159,0.314,0.395,0.564,0.673,0.752c0.142,0.603,0.472,1.183,1.008,1.512
			c0.32,0.195,0.721,0.427,1.115,0.374c0.258-0.033,0.517-0.068,0.776-0.104c0.242-0.086,0.475-0.195,0.696-0.328
			c0.119-0.092,0.239-0.185,0.359-0.276c0.167-0.125,0.331-0.257,0.487-0.395c0.237-0.2,0.449-0.436,0.667-0.655
			c0.164-0.167,0.319-0.341,0.48-0.511c0.355-0.377,0.706-0.758,1.055-1.142c0.67-0.742,1.338-1.49,2.014-2.228
			c1.377-1.502,2.754-3.009,4.18-4.466c1.491-1.524,3.02-3.009,4.5-4.542c1.434-1.485,2.817-3.009,4.156-4.58
			c1.291-1.511,2.536-3.065,3.798-4.598c1.315-1.598,2.603-3.221,3.83-4.887c0.799-1.086,1.556-2.202,2.315-3.316
			c1.402,1.106,2.809,2.206,4.236,3.281c1.617,1.219,3.259,2.403,4.902,3.589c3.469,2.506,6.929,5.026,10.412,7.514
			c1.724,1.233,3.466,2.441,5.202,3.657c1.595,1.118,3.188,2.249,4.834,3.292c1.727,1.096,3.469,2.166,5.214,3.236
			c1.741,1.067,3.45,2.189,5.211,3.221c2.274,1.335,4.574,2.624,6.976,3.719c1.135,0.516,2.258,1.054,3.394,1.563
			c0.541,0.242,1.075,0.501,1.619,0.735c0.4,0.173,0.807,0.353,1.222,0.493c0.132,0.043,0.262,0.08,0.397,0.113
			c0.265,0.054,0.531,0.086,0.798,0.093c0.476,0.022,0.816-0.159,1.234-0.346c0.501-0.224,0.887-0.827,1.027-1.335
			c0.137-0.497,0.089-1.013-0.109-1.478c1.582-3.009,3.01-6.101,4.397-9.205c1.547-3.459,3.072-6.928,4.52-10.43
			c2.972-7.194,5.906-14.4,8.769-21.635c2.597-6.564,5.141-13.149,7.803-19.686c1.601-3.932,3.202-7.864,4.802-11.795
			c1.598-3.926,3.266-7.825,4.899-11.736c1.151-2.755,2.292-5.515,3.431-8.276c1.04-2.521,2.08-5.041,3.121-7.562
			c0.487-1.177,0.987-2.351,1.458-3.535c1.607-4.04,3.212-8.082,4.819-12.122c1.069-2.688,2.107-5.383,3.129-8.088
			c1.509-4,3.02-7.998,4.529-11.998c0.463-1.224,0.867-2.473,1.299-3.707c0.9-2.569,1.799-5.136,2.699-7.703
			c0.95-2.711,1.903-5.42,2.817-8.142c1.56-4.646,3.12-9.291,4.681-13.937c4.626-13.773,9.23-27.552,14.019-41.269
			c1.102-3.155,2.178-6.317,3.341-9.45c1.487-3.997,2.97-7.995,4.457-11.993c0.574-1.541,1.222-3.059,1.832-4.586
			c0.971-2.434,1.944-4.867,2.914-7.301c1.299-3.251,2.63-6.49,3.952-9.732c5.515-13.538,10.702-27.206,16.047-40.81
			c1.446-3.68,2.882-7.359,4.296-11.051c0.595-1.55,1.234-3.09,1.777-4.658c0.779-2.249,1.557-4.496,2.336-6.743
			c0.552-1.596,1.03-3.218,1.527-4.832c0.526-1.703,1.028-3.406,1.508-5.124c0.891-3.194,1.707-6.405,2.483-9.627
			c0.235-0.249,0.468-0.5,0.705-0.748c0.648-0.681,1.275-1.326,1.736-2.158c0.306-0.553,0.372-1.197,0.175-1.784
			c0.135-0.311,0.265-0.625,0.389-0.941c0.057-0.403,0.108-0.806,0.153-1.21C458.854,120.929,458.47,120.203,458.049,119.782z
			 M200.178,379.169c-3.448-2.258-6.943-4.44-10.325-6.797c-3.586-2.5-7.149-5.029-10.789-7.452
			c-3.343-2.225-6.719-4.402-10.038-6.665c-1.727-1.177-3.46-2.348-5.151-3.576c-1.798-1.306-3.586-2.621-5.38-3.932
			c-3.257-2.381-6.504-4.777-9.702-7.236c-1.931-1.487-3.851-3-5.861-4.382c-1.4-0.964-2.805-1.922-4.212-2.877
			c0.781-0.365,1.558-0.737,2.334-1.111c2.436-1.174,4.84-2.417,7.209-3.722c2.115-1.165,4.189-2.403,6.248-3.664
			c1.03-0.631,2.052-1.273,3.074-1.916c0.861-0.543,1.735-1.073,2.581-1.638c3.424-2.283,6.85-4.568,10.274-6.851
			c2.488-1.659,4.936-3.38,7.395-5.082c2.66-1.838,5.343-3.646,7.977-5.522c3.627-2.585,7.252-5.169,10.878-7.754
			c1.99-1.417,3.98-2.833,5.951-4.276c5.685-4.165,11.39-8.302,17.045-12.507c5.876-4.369,11.729-8.771,17.628-13.107
			c6.6-4.85,13.199-9.702,19.799-14.551c1.906-1.401,3.843-2.76,5.764-4.138c4.127-2.958,8.256-5.915,12.384-8.873
			c1.697-1.217,3.387-2.446,5.099-3.641c3.544-2.476,7.09-4.951,10.636-7.425c3.316-2.316,6.633-4.632,9.95-6.949
			c1.924-1.344,3.882-2.641,5.824-3.958c4.177-2.833,8.353-5.665,12.53-8.498c1.631-1.105,3.254-2.219,4.899-3.302
			c7.347-4.848,14.694-9.695,22.043-14.542c5.634-3.716,11.336-7.328,17.009-10.982c11.135-7.174,22.333-14.249,33.526-21.329
			c12.808-8.1,25.626-16.178,38.502-24.168c2.394-1.486,4.799-2.956,7.212-4.411c-0.367,0.352-0.733,0.704-1.101,1.055
			c-1.973,1.879-3.89,3.815-5.869,5.686c-1.06,1.001-2.142,1.975-3.221,2.954c-1.048,0.95-2.068,1.932-3.095,2.904
			c-4.191,3.97-8.097,8.231-12.077,12.41c-3.91,4.105-7.788,8.235-11.587,12.443c-1.853,2.052-3.719,4.092-5.578,6.136
			c-2.022,2.222-4.052,4.431-6.149,6.581c-3.926,4.024-7.903,8.001-11.835,12.02c-4.173,4.267-8.372,8.51-12.521,12.803
			c-1.936,2.004-3.801,4.075-5.674,6.137c-1.87,2.056-3.704,4.15-5.629,6.154c-3.971,4.13-7.996,8.211-11.918,12.388
			c-4.052,4.318-8.06,8.68-12.085,13.024c-1.993,2.149-3.997,4.285-5.988,6.435c-1.927,2.079-3.822,4.186-5.73,6.283
			c-3.708,4.073-7.527,8.042-11.233,12.116c-4.067,4.473-8.036,9.028-11.986,13.603c-3.704,4.288-7.527,8.467-11.342,12.655
			c-3.935,4.32-7.825,8.682-11.753,13.008c-1.846,2.034-3.723,4.039-5.599,6.042c-1.895,2.023-3.809,4.031-5.665,6.087
			c-4.039,4.473-8.04,8.981-12.101,13.435c-1.895,2.079-3.824,4.126-5.736,6.188c-1.924,2.073-3.8,4.188-5.67,6.309
			c-1.894,2.149-3.783,4.3-5.7,6.429c-1.965,2.182-3.988,4.311-5.996,6.451c-1.873,1.996-3.669,4.061-5.486,6.108
			c-1.975,2.225-4,4.403-6.024,6.583c-1.586,1.711-3.166,3.429-4.753,5.138c-0.905,0.975-1.81,1.948-2.695,2.94
			c-0.676,0.758-1.342,1.52-1.958,2.328c-0.314,0.413-0.61,0.835-0.886,1.271c-0.109-0.074-0.218-0.147-0.327-0.221
			c-0.801-0.547-1.595-1.106-2.39-1.664C203.497,381.404,201.851,380.263,200.178,379.169z M235,437.607
			c-1.786-3.836-3.74-7.587-5.605-11.384c-0.882-1.796-1.724-3.61-2.609-5.407c-0.89-1.808-1.811-3.603-2.731-5.398
			c-1.718-3.352-3.519-6.657-5.297-9.977c-1.698-3.171-3.211-6.419-4.651-9.716c-0.411-0.994-0.84-1.984-1.219-2.99
			c-0.49-1.305-0.98-2.61-1.457-3.919c0.07-0.389,0.058-0.792-0.049-1.177c-0.089-0.212-0.177-0.422-0.266-0.634
			c-0.078-0.132-0.169-0.251-0.265-0.366c0.234-0.397,0.492-0.78,0.763-1.159c1.011-1.268,2.124-2.455,3.24-3.629
			c1.078-1.135,2.152-2.273,3.229-3.411c1.828-1.934,3.662-3.866,5.474-5.815c2.088-2.246,4.143-4.518,6.187-6.803
			c1.783-1.993,3.645-3.913,5.473-5.862c1.971-2.1,3.925-4.215,5.834-6.372c1.889-2.134,3.756-4.29,5.674-6.397
			c1.91-2.1,3.837-4.183,5.776-6.259c2.025-2.167,4.054-4.332,6.042-6.534c3.956-4.377,7.887-8.773,11.917-13.084
			c1.816-1.94,3.651-3.863,5.462-5.809c2.094-2.252,4.176-4.512,6.25-6.782c1.928-2.11,3.833-4.243,5.754-6.358
			c1.828-2.013,3.663-4.016,5.503-6.017c1.944-2.115,3.899-4.222,5.796-6.379c1.978-2.247,3.947-4.5,5.913-6.759
			c3.857-4.43,7.795-8.786,11.816-13.068c1.858-1.977,3.72-3.949,5.57-5.934c1.868-2.004,3.716-4.025,5.568-6.044
			c4.016-4.378,8.078-8.715,12.122-13.066c3.989-4.291,7.96-8.599,11.993-12.85c1.969-2.076,3.968-4.121,5.957-6.176
			c1.999-2.064,3.958-4.159,5.903-6.274c1.862-2.023,3.677-4.094,5.516-6.137c1.879-2.085,3.828-4.112,5.788-6.122
			c4.189-4.296,8.365-8.605,12.561-12.894c3.964-4.051,8.016-8.017,11.882-12.16c3.932-4.212,7.741-8.54,11.601-12.818
			c3.837-4.251,7.801-8.387,11.703-12.579c1.865-2.004,3.741-4.001,5.661-5.954c0.527-0.535,1.064-1.059,1.597-1.589
			c-1.933,2.301-3.775,4.676-5.606,7.057c-1.927,2.507-3.828,5.031-5.719,7.564c-1.799,2.409-3.607,4.813-5.443,7.195
			c-1.971,2.56-3.904,5.142-5.784,7.769c-1.184,1.654-2.397,3.28-3.632,4.895c-1.291,1.618-2.595,3.228-3.845,4.878
			c-1.243,1.643-2.471,3.295-3.69,4.956c-2.34,3.187-4.732,6.331-7.146,9.461c-1.85,2.387-3.695,4.779-5.551,7.16
			c-1.861,2.388-3.756,4.748-5.658,7.105c-4.123,5.11-8.202,10.254-12.15,15.503c-3.806,5.062-7.634,10.108-11.491,15.132
			c-3.767,4.906-7.446,9.874-11.073,14.884c-1.548,2.137-3.078,4.288-4.626,6.427c-1.685,2.325-3.392,4.63-5.113,6.929
			c-1.953,2.516-3.912,5.029-5.873,7.539c-1.841,2.357-3.684,4.715-5.485,7.104c-3.946,5.238-7.867,10.493-11.804,15.739
			c-1.682,2.244-3.373,4.482-5.005,6.762c-2.008,2.808-3.997,5.623-5.967,8.456c-3.424,4.926-6.816,9.874-10.227,14.809
			c-3.75,5.425-7.467,10.873-11.246,16.277c-3.534,5.053-7.073,10.099-10.547,15.195c-1.709,2.507-3.401,5.025-5.141,7.512
			c-1.775,2.54-3.621,5.035-5.432,7.552c-3.511,4.877-7.037,9.741-10.388,14.732c-1.248,1.858-2.513,3.704-3.779,5.548
			c-0.362,0.528-0.753,1.035-1.144,1.542c-0.083-0.009-0.166-0.015-0.249-0.015c-0.774,0-1.524,0.381-1.948,1.104
			c-0.006,0.01-0.01,0.02-0.015,0.03c-0.153,0.061-0.302,0.127-0.447,0.206c-0.364,0.189-0.589,0.528-0.798,0.863
			c-0.102,0.229-0.2,0.457-0.295,0.688c-0.06,0.165-0.11,0.332-0.152,0.502c-0.078,0.292-0.122,0.594-0.176,0.891
			c-0.084,0.466-0.17,0.933-0.255,1.401c-0.086,0.464-0.075,0.89,0.171,1.311c0.222,0.38,0.592,0.664,1.018,0.782
			c0.078,0.022,0.157,0.037,0.236,0.047c0.02,0.787,0.022,1.574,0.019,2.358c-0.009,2.101-0.033,4.204-0.056,6.305
			c-0.045,4.073-0.059,8.148-0.027,12.222c0.032,4.174,0.087,8.347,0.209,12.521c0.01,0.351,0.024,0.702,0.036,1.053
			C237.885,444.134,236.503,440.836,235,437.607z M261.596,439.958c-1.285,1.539-2.513,3.126-3.788,4.675
			c-1.248,1.517-2.558,2.99-3.906,4.418c-2.035,2.154-4.064,4.308-6.039,6.517c-0.974,1.091-1.939,2.19-2.902,3.29
			c-0.437,0.501-0.876,0.998-1.315,1.499c-0.015,0.017-0.029,0.033-0.044,0.05c0.002-0.078,0.003-0.156,0.005-0.233
			c0.02-0.989,0.036-1.98,0.05-2.97c0.029-2.005,0.051-4.012,0.063-6.017c0.022-4.081,0.084-8.16,0.132-12.241
			c0.048-4.084,0.08-8.168,0.047-12.253c-0.035-4.279-0.116-8.554-0.395-12.824c-0.063-0.962-0.171-1.921-0.314-2.874
			c0.039,0.024,0.078,0.047,0.116,0.072c0.822,0.524,1.612,1.079,2.404,1.646c3.183,2.483,6.268,5.092,9.286,7.772
			c1.452,1.287,2.853,2.632,4.309,3.914c0.876,0.771,1.763,1.526,2.659,2.274c0.903,0.755,1.867,1.443,2.805,2.154
			c0.947,0.72,1.93,1.395,2.889,2.1c0.275,0.202,0.545,0.412,0.818,0.616C266.237,434.395,263.92,437.177,261.596,439.958z
			 M447.775,141.085c-0.409,1.297-0.818,2.596-1.227,3.893c-0.497,1.581-1.072,3.138-1.623,4.702
			c-0.543,1.539-1.052,3.095-1.643,4.616c-1.359,3.498-2.706,7-4.093,10.486c-2.794,7.015-5.573,14.034-8.335,21.061
			c-1.332,3.389-2.658,6.782-4.01,10.164c-1.366,3.418-2.709,6.848-4.111,10.254c-1.617,3.932-3.236,7.866-4.853,11.798
			c-1.595,3.876-3.134,7.777-4.7,11.665c-1.281,3.178-2.452,6.399-3.654,9.608c-1.141,3.047-2.282,6.087-3.361,9.155
			c-1.35,3.836-2.731,7.661-4.049,11.508c-1.426,4.159-2.851,8.318-4.276,12.477c-2.363,6.892-4.676,13.801-7.004,20.705
			c-1.219,3.612-2.439,7.224-3.659,10.834c-0.945,2.802-1.879,5.608-2.86,8.396c-1.637,4.649-3.274,9.298-4.911,13.947
			c-1.036,2.942-2.18,5.844-3.286,8.759c-1.21,3.193-2.378,6.405-3.643,9.575c-1.765,4.421-3.529,8.84-5.294,13.259
			c-1.129,2.827-2.306,5.635-3.471,8.447c-1.375,3.317-2.737,6.639-4.126,9.949c-1.817,4.335-3.636,8.67-5.453,13.005
			c-1.288,3.071-2.537,6.157-3.798,9.238c-1.267,3.096-2.536,6.193-3.771,9.303c-1.381,3.475-2.76,6.95-4.144,10.424
			c-1.759,4.405-3.51,8.813-5.304,13.205c-1.707,4.176-3.438,8.34-5.177,12.502c-0.748,1.726-1.495,3.451-2.242,5.177
			c-0.667,1.538-1.383,3.054-2.079,4.58c-1.266,2.773-2.646,5.487-3.828,8.296c-0.431-0.234-0.863-0.465-1.293-0.699
			c-0.86-0.466-1.736-0.896-2.596-1.362c-0.846-0.458-1.679-0.944-2.506-1.437c-3.513-2.091-6.929-4.339-10.386-6.522
			c-1.637-1.034-3.277-2.07-4.866-3.177c-1.724-1.204-3.431-2.431-5.142-3.653c-3.377-2.412-6.719-4.876-10.101-7.282
			c-3.466-2.467-6.977-4.87-10.386-7.412c-1.619-1.207-3.209-2.459-4.871-3.607c-1.817-1.255-3.65-2.488-5.452-3.765
			c-0.657-0.466-1.296-0.953-1.933-1.443c-3.207-2.606-6.301-5.349-9.571-7.878c-1.753-1.354-3.48-2.754-5.268-4.063
			c-0.908-0.664-1.823-1.312-2.751-1.951c-0.485-0.333-0.991-0.639-1.502-0.936c0.896-1.174,1.724-2.391,2.562-3.609
			c1.64-2.372,3.226-4.781,4.902-7.129c3.695-5.175,7.488-10.284,11.287-15.384c3.574-4.798,6.917-9.755,10.35-14.654
			c3.541-5.053,7.171-10.045,10.701-15.106c3.756-5.383,7.517-10.764,11.27-16.148c1.826-2.62,3.65-5.24,5.473-7.861
			c1.604-2.303,3.194-4.62,4.837-6.896c1.571-2.174,3.123-4.359,4.733-6.504c1.817-2.421,3.636-4.84,5.461-7.255
			c3.246-4.297,6.478-8.602,9.727-12.896c1.725-2.229,3.443-4.463,5.182-6.682c1.019-1.299,2.04-2.596,3.054-3.897
			c1.058-1.357,2.136-2.701,3.17-4.075c0.948-1.261,1.917-2.509,2.844-3.785c1.09-1.497,2.178-2.996,3.268-4.493
			c1.753-2.411,3.489-4.834,5.243-7.243c2.951-4.055,5.975-8.05,9.032-12.024c4.514-5.817,8.993-11.664,13.455-17.522
			c1.795-2.303,3.587-4.609,5.429-6.874c2.085-2.566,4.18-5.122,6.28-7.676c3.928-4.777,7.718-9.663,11.532-14.529
			c3.353-4.277,6.557-8.662,9.843-12.987c1.904-2.412,3.855-4.794,5.666-7.279c1.892-2.6,3.743-5.231,5.679-7.799
			c1.793-2.381,3.624-4.733,5.405-7.122c1.947-2.611,3.872-5.235,5.826-7.84c1.435-1.916,2.884-3.822,4.337-5.722
			c0.878-1.125,1.762-2.243,2.678-3.338c0.959-1.148,1.958-2.261,2.957-3.374c2.031-2.267,4.114-4.485,6.133-6.764
			c0.998-1.129,1.964-2.285,2.925-3.447c0.944-1.142,1.916-2.259,2.875-3.389c0.068-0.08,0.135-0.161,0.202-0.241
			c-0.371,1.328-0.773,2.649-1.15,3.975C448.161,139.908,447.96,140.494,447.775,141.085z"/>
		<path style="fill:#2C2C2C;" d="M149.213,350.054c-0.162-0.125-0.323-0.251-0.485-0.376c-0.006-0.005-0.013-0.01-0.019-0.014
			C148.876,349.794,149.044,349.923,149.213,350.054z"/>
	</g>
	<path style="fill:#161616;" d="M248.591,487.479c0.035,1.964,0.206,3.911,0.522,5.85c0.368,2.271,1.099,4.46,2.007,6.567
		c0.713,1.655,1.644,3.199,2.606,4.718c0.47,0.744,1.061,1.434,1.599,2.13c0.454,0.586,0.951,1.129,1.453,1.676
		c1.058,1.153,2.184,2.258,3.406,3.238c0.005,0.003,0.011,0,0.008-0.006c-0.73-1.339-1.38-2.725-2.028-4.107
		c-0.305-0.648-0.637-1.284-0.923-1.939c-0.342-0.789-0.698-1.572-1.068-2.349c-0.607-1.466-1.278-2.897-1.966-4.325
		c-0.935-1.944-1.978-3.831-2.916-5.773c-0.914-1.886-1.787-3.791-2.691-5.683c-0.001-0.001-0.002-0.002-0.003-0.002
		C248.594,487.475,248.591,487.476,248.591,487.479L248.591,487.479L248.591,487.479z"/>
	<path style="fill:#161616;" d="M273.296,531.108c1.595,2.256,3.293,4.436,5.082,6.543c1.329,1.568,2.791,3.039,4.273,4.46
		c0.689,0.657,1.446,1.248,2.193,1.837c0.789,0.624,1.584,1.246,2.408,1.825c1.754,1.237,3.553,2.406,5.392,3.516
		c1.375,0.83,2.763,1.638,4.155,2.441c0.004,0.003,0.009-0.005,0.006-0.008c-2.576-2.889-5.178-5.758-7.969-8.443
		c-2.752-2.647-5.685-5.099-8.759-7.365c-2.192-1.695-4.461-3.287-6.774-4.813c-0.001-0.001-0.002-0.001-0.003-0.001
		C273.296,531.099,273.293,531.104,273.296,531.108L273.296,531.108L273.296,531.108z M280.179,535.993
		c0.043,0.033,0.085,0.066,0.128,0.099C280.264,536.059,280.221,536.026,280.179,535.993L280.179,535.993L280.179,535.993z"/>
	<path style="fill:#161616;" d="M322.921,564.105c2.294,1.76,4.682,3.359,7.221,4.741c1.655,0.899,3.37,1.724,5.157,2.324
		c1.928,0.646,3.902,1.129,5.898,1.514c1.903,0.367,3.831,0.654,5.766,0.771c0.006,0.001,0.007-0.006,0.003-0.009
		c-1.634-0.953-3.217-1.993-4.845-2.957c-1.775-1.051-3.6-2.029-5.488-2.862c-4.332-1.912-9.027-2.937-13.71-3.531l-0.001,0
		C322.919,564.096,322.918,564.102,322.921,564.105L322.921,564.105L322.921,564.105z"/>
	<path style="fill:#161616;" d="M390.293,574.3c-4.126,0.537-8.268,0.348-12.412,0.232c-0.005,0-0.008,0.008-0.003,0.009
		c2.321,1.027,4.717,1.91,7.21,2.399c1.159,0.229,2.346,0.356,3.525,0.406c1.233,0.051,2.461-0.095,3.678-0.263
		c1.066-0.146,2.119-0.389,3.167-0.633c3.32-0.773,6.567-1.859,9.799-2.937c0.006-0.001,0.005-0.009-0.001-0.009
		c-1.071-0.054-2.141-0.08-3.21-0.08C398.113,573.424,394.199,573.77,390.293,574.3L390.293,574.3L390.293,574.3z"/>
	<path style="fill:#161616;" d="M452.1,549.527c-1.755,1.138-3.485,2.305-5.145,3.579c0.016-0.012,0.031-0.024,0.046-0.036
		c-0.785,0.597-1.544,1.223-2.297,1.859c-0.755,0.637-1.434,1.345-2.122,2.05c-1.451,1.484-2.818,3.098-4.084,4.741
		c0.018-0.023,0.036-0.045,0.054-0.068c-0.276,0.355-0.552,0.709-0.822,1.069c-0.003,0.005,0.003,0.009,0.008,0.008
		c3.241-1.386,6.311-3.19,8.823-5.691c1.082-1.079,2.025-2.322,2.928-3.553c0.936-1.273,1.799-2.6,2.617-3.952
		c0.002-0.003,0-0.007-0.004-0.007C452.102,549.526,452.101,549.526,452.1,549.527L452.1,549.527L452.1,549.527z"/>
	<path style="fill:#161616;" d="M472.153,509.455c-0.287,1.426-0.597,2.85-0.839,4.285c-0.233,1.377-0.404,2.767-0.535,4.158
		c-0.146,1.562-0.215,3.116-0.213,4.684c0.003,1.889,0.103,3.795-0.102,5.675c-0.097,0.666-0.252,1.279-0.505,1.905
		c-0.377,0.816-0.82,1.6-1.244,2.391c-0.003,0.004,0.004,0.009,0.008,0.004c0.278-0.412,0.553-0.825,0.83-1.24
		c0.415-0.624,0.867-1.247,1.141-1.95c0.588-1.509,0.809-3.111,1.039-4.703c0.228-1.593,0.421-3.188,0.573-4.789
		c0.328-3.45,0.493-6.998-0.143-10.421c0-0.002-0.002-0.003-0.004-0.003S472.153,509.453,472.153,509.455L472.153,509.455
		L472.153,509.455z"/>
	<path style="fill:#161616;" d="M445.709,475.766c0.069,0.051,0.138,0.102,0.207,0.153c-0.002-0.002-0.004-0.004-0.006-0.006
		c0.137,0.101,0.252,0.222,0.346,0.365c-0.011-0.015-0.023-0.03-0.035-0.045c0.685,1.031,1.207,2.166,1.796,3.254
		c0.373,0.685,0.765,1.36,1.163,2.032c0.914,1.538,1.924,3.02,3.056,4.404c-0.057-0.075-0.115-0.15-0.173-0.224
		c2.519,3.224,5.744,5.921,9.128,8.194c0.003,0.003,0.008-0.001,0.008-0.004c-0.782-2.321-1.742-4.548-2.937-6.683
		c-0.854-1.529-1.814-3.122-2.991-4.431c-1.079-1.199-2.28-2.33-3.546-3.332c-0.797-0.631-1.61-1.245-2.44-1.835
		c-0.473-0.337-0.957-0.657-1.449-0.968c-0.663-0.419-1.335-0.819-2.125-0.882C445.706,475.757,445.706,475.764,445.709,475.766
		L445.709,475.766L445.709,475.766z"/>
	<path style="fill:#161616;" d="M418.136,472.684c-1.281,0.415-2.456,1.141-3.529,1.941c-1.535,1.142-2.749,2.569-3.895,4.084
		c-0.544,0.717-1.022,1.479-1.432,2.28c-0.003,0.005,0.001,0.009,0.006,0.006c0.864-0.637,1.79-1.162,2.731-1.674
		c2.298-1.253,4.677-2.299,7.076-3.336c1.378-0.579,2.796-1.159,4.273-1.396c1.613-0.146,3.218-0.029,4.832,0.002
		c0.004,0,0.006-0.006,0.001-0.009c-0.906-0.618-1.819-1.233-2.824-1.679c-1.115-0.497-2.21-0.804-3.435-0.848
		c-0.088-0.003-0.177-0.005-0.266-0.005C420.486,472.05,419.253,472.323,418.136,472.684L418.136,472.684L418.136,472.684z"/>
	<path style="fill:#161616;" d="M396.203,503.006c-1.524,2.563-2.83,5.228-3.895,8.014c-0.449,1.178-0.697,2.441-0.872,3.687
		c-0.209,1.505-0.248,2.97,0.005,4.473c0.162,0.972,0.585,1.88,0.998,2.769c0.299,0.637,0.637,1.237,1.039,1.817
		c0.003,0.005,0.011,0.001,0.009-0.003c-0.121-0.494-0.206-0.983-0.29-1.483c-0.035-0.354-0.071-0.709-0.109-1.062
		c-0.098-0.918-0.092-1.812,0.015-2.724c0.169-1.061,0.449-2.09,0.732-3.127c0.293-1.075,0.565-2.155,0.816-3.241
		c0.177-0.771,0.371-1.538,0.535-2.312c0.475-2.241,0.798-4.527,1.027-6.807c0-0.003-0.003-0.004-0.005-0.004
		C396.205,503.004,396.203,503.004,396.203,503.006L396.203,503.006L396.203,503.006z"/>
	<path style="fill:#161616;" d="M402.087,548.959c0.272,1.763,0.661,3.499,1.141,5.219c0.143,0.517,0.335,1.021,0.519,1.524
		c0.254,0.697,0.504,1.429,0.845,2.089c1.27,2.459,2.886,4.759,4.828,6.737c0.004,0.003,0.01-0.002,0.007-0.006
		c-0.345-0.703-0.656-1.42-0.973-2.136c-0.19-0.458-0.384-0.915-0.581-1.368c-0.237-0.576-0.481-1.148-0.733-1.716
		c-0.304-0.789-0.627-1.572-0.975-2.344c-0.467-1.146-1.038-2.239-1.574-3.354c-0.759-1.586-1.62-3.124-2.497-4.649
		c-0.001-0.002-0.002-0.002-0.003-0.002C402.089,548.953,402.086,548.955,402.087,548.959L402.087,548.959L402.087,548.959z"/>
	<path style="fill:#161616;" d="M435.716,596.167c1.616,3.438,3.6,6.809,6.223,9.581c2.128,2.249,4.602,4.154,7.066,6.015
		c0.004,0.003,0.009-0.003,0.007-0.006c-1.422-2.697-2.869-5.393-4.694-7.845c-2.318-3.11-5.38-5.618-8.595-7.751
		c-0.001-0.001-0.002-0.001-0.003-0.001C435.717,596.16,435.715,596.164,435.716,596.167L435.716,596.167L435.716,596.167z"/>
	<path style="fill:#161616;" d="M473.157,636.209c2.851,3.932,6.018,7.768,9.72,10.934c3.236,2.769,6.789,5.103,10.331,7.455
		c0.003,0.002,0.009-0.003,0.006-0.008c-2.34-3.423-5.007-6.668-7.95-9.59c-1.366-1.356-2.866-2.554-4.394-3.72
		c-2.449-1.87-5.038-3.541-7.706-5.077c-0.001,0-0.001,0-0.001,0C473.159,636.203,473.154,636.207,473.157,636.209L473.157,636.209
		L473.157,636.209z"/>
	<path style="fill:#161616;" d="M531.767,681.093c2.913,4.028,6.223,7.888,10.095,11.03c3.532,2.865,7.555,4.999,11.545,7.14
		c0.783,0.419,1.56,0.855,2.313,1.327c0.005,0.003,0.009-0.001,0.006-0.006c-1.215-1.832-2.644-3.526-4.082-5.186
		c-1.2-1.384-2.488-2.697-3.815-3.958c-3.499-3.325-7.551-6.02-11.81-8.273c-1.393-0.738-2.811-1.428-4.246-2.08
		c0,0-0.001,0-0.001,0C531.769,681.086,531.765,681.09,531.767,681.093L531.767,681.093L531.767,681.093z"/>
	<path style="fill:#161616;" d="M585.084,718.679c1.127,2.363,3.142,4.14,5.12,5.782c1.028,0.857,2.071,1.69,3.134,2.506
		c1.748,1.342,3.558,2.603,5.414,3.791c3.609,2.31,7.376,4.378,11.082,6.526c0.494,0.287,0.984,0.582,1.474,0.876
		c0.004,0.003,0.009-0.005,0.006-0.008c-2.749-3.133-5.674-6.161-8.922-8.781c-1.058-0.854-2.134-1.689-3.239-2.483
		c-0.737-0.529-1.535-0.987-2.312-1.455c-1.136-0.682-2.295-1.332-3.465-1.958c-1.965-1.054-4.012-1.956-5.937-3.08
		c-0.608-0.355-1.176-0.773-1.734-1.201c0.002,0.001,0.004,0.003,0.005,0.004c-0.215-0.168-0.418-0.341-0.619-0.526
		c-0.001-0.001-0.002-0.002-0.003-0.002C585.086,718.671,585.083,718.675,585.084,718.679L585.084,718.679L585.084,718.679z
		 M585.68,719.175c0.007,0.005,0.013,0.01,0.02,0.015C585.693,719.185,585.686,719.18,585.68,719.175L585.68,719.175L585.68,719.175
		z"/>
	<path style="fill:#161616;" d="M630.07,752.194c3.654,2.958,7.527,5.767,11.729,7.902c3.552,1.804,7.308,3.307,11.144,4.38
		c0.006,0.002,0.009-0.005,0.005-0.008c-3.295-2.193-6.388-4.667-9.773-6.725c-1.58-0.96-3.227-1.774-4.917-2.521
		c-2.668-1.18-5.395-2.184-8.183-3.036c0,0-0.001,0-0.002,0C630.069,752.187,630.066,752.192,630.07,752.194L630.07,752.194
		L630.07,752.194z"/>
	<path style="fill:#161616;" d="M676.852,778.218c3.8,3.081,7.863,5.895,12.226,8.121c1.685,0.86,3.429,1.613,5.178,2.328
		c1.947,0.795,3.919,1.523,5.918,2.18c0.473,0.155,0.951,0.302,1.429,0.443c0.006,0.002,0.009-0.006,0.004-0.009
		c-1.707-1.073-3.377-2.208-5.077-3.293c-1.903-1.214-3.839-2.388-5.817-3.475c-1.846-1.013-3.729-1.939-5.652-2.797
		c-0.903-0.403-1.795-0.831-2.699-1.229c-1.135-0.497-2.279-0.975-3.43-1.435c-0.693-0.276-1.381-0.565-2.076-0.84l-0.002,0
		C676.851,778.21,676.848,778.215,676.852,778.218L676.852,778.218L676.852,778.218z"/>
</g>
</svg>
